<?xml version="1.0" encoding="UTF-8" standalone="no"?>
<!-- Created with Inkscape (http://www.inkscape.org/) -->

<svg
   version="1.1"
   id="svg1"
   width="880"
   height="880"
   viewBox="0 0 880 880"
   sodipodi:docname="operating-system-on-laptop.svg"
   inkscape:version="1.3.2 (091e20e, 2023-11-25, custom)"
   xmlns:inkscape="http://www.inkscape.org/namespaces/inkscape"
   xmlns:sodipodi="http://sodipodi.sourceforge.net/DTD/sodipodi-0.dtd"
   xmlns="http://www.w3.org/2000/svg"
   xmlns:svg="http://www.w3.org/2000/svg">
  <defs
     id="defs1">
    <clipPath
       clipPathUnits="userSpaceOnUse"
       id="clipPath3">
      <path
         d="M 0,660 H 660 V 0 H 0 Z"
         transform="translate(-331.17771,-522.37891)"
         id="path3" />
    </clipPath>
    <clipPath
       clipPathUnits="userSpaceOnUse"
       id="clipPath5">
      <path
         d="M 0,660 H 660 V 0 H 0 Z"
         id="path5" />
    </clipPath>
    <clipPath
       clipPathUnits="userSpaceOnUse"
       id="clipPath7">
      <path
         d="M 0,660 H 660 V 0 H 0 Z"
         id="path7" />
    </clipPath>
    <clipPath
       clipPathUnits="userSpaceOnUse"
       id="clipPath9">
      <path
         d="M 0,660 H 660 V 0 H 0 Z"
         id="path9" />
    </clipPath>
    <clipPath
       clipPathUnits="userSpaceOnUse"
       id="clipPath11">
      <path
         d="M 0,660 H 660 V 0 H 0 Z"
         id="path11" />
    </clipPath>
    <clipPath
       clipPathUnits="userSpaceOnUse"
       id="clipPath13">
      <path
         d="M 0,660 H 660 V 0 H 0 Z"
         id="path13" />
    </clipPath>
    <clipPath
       clipPathUnits="userSpaceOnUse"
       id="clipPath15">
      <path
         d="M 0,660 H 660 V 0 H 0 Z"
         id="path15" />
    </clipPath>
    <clipPath
       clipPathUnits="userSpaceOnUse"
       id="clipPath17">
      <path
         d="M 0,660 H 660 V 0 H 0 Z"
         id="path17" />
    </clipPath>
    <clipPath
       clipPathUnits="userSpaceOnUse"
       id="clipPath19">
      <path
         d="M 0,660 H 660 V 0 H 0 Z"
         id="path19" />
    </clipPath>
    <clipPath
       clipPathUnits="userSpaceOnUse"
       id="clipPath21">
      <path
         d="M 0,660 H 660 V 0 H 0 Z"
         id="path21" />
    </clipPath>
    <clipPath
       clipPathUnits="userSpaceOnUse"
       id="clipPath23">
      <path
         d="M 0,660 H 660 V 0 H 0 Z"
         id="path23" />
    </clipPath>
    <clipPath
       clipPathUnits="userSpaceOnUse"
       id="clipPath25">
      <path
         d="M 0,660 H 660 V 0 H 0 Z"
         id="path25" />
    </clipPath>
    <clipPath
       clipPathUnits="userSpaceOnUse"
       id="clipPath27">
      <path
         d="M 0,660 H 660 V 0 H 0 Z"
         transform="translate(-116.54931,-252.05271)"
         id="path27" />
    </clipPath>
    <clipPath
       clipPathUnits="userSpaceOnUse"
       id="clipPath29">
      <path
         d="M 0,660 H 660 V 0 H 0 Z"
         id="path29" />
    </clipPath>
    <clipPath
       clipPathUnits="userSpaceOnUse"
       id="clipPath31">
      <path
         d="M 0,660 H 660 V 0 H 0 Z"
         transform="translate(-197.2998,-411.55811)"
         id="path31" />
    </clipPath>
    <clipPath
       clipPathUnits="userSpaceOnUse"
       id="clipPath33">
      <path
         d="M 0,660 H 660 V 0 H 0 Z"
         id="path33" />
    </clipPath>
    <clipPath
       clipPathUnits="userSpaceOnUse"
       id="clipPath35">
      <path
         d="M 0,660 H 660 V 0 H 0 Z"
         id="path35" />
    </clipPath>
    <clipPath
       clipPathUnits="userSpaceOnUse"
       id="clipPath37">
      <path
         d="M 0,660 H 660 V 0 H 0 Z"
         transform="translate(-161.8159,-243.61231)"
         id="path37" />
    </clipPath>
    <clipPath
       clipPathUnits="userSpaceOnUse"
       id="clipPath39">
      <path
         d="M 0,660 H 660 V 0 H 0 Z"
         transform="translate(-293.20801,-243.6943)"
         id="path39" />
    </clipPath>
    <clipPath
       clipPathUnits="userSpaceOnUse"
       id="clipPath41">
      <path
         d="M 0,660 H 660 V 0 H 0 Z"
         id="path41" />
    </clipPath>
    <clipPath
       clipPathUnits="userSpaceOnUse"
       id="clipPath43">
      <path
         d="M 0,660 H 660 V 0 H 0 Z"
         id="path43" />
    </clipPath>
    <clipPath
       clipPathUnits="userSpaceOnUse"
       id="clipPath45">
      <path
         d="M 0,660 H 660 V 0 H 0 Z"
         id="path45" />
    </clipPath>
    <clipPath
       clipPathUnits="userSpaceOnUse"
       id="clipPath47">
      <path
         d="M 0,660 H 660 V 0 H 0 Z"
         id="path47" />
    </clipPath>
  </defs>
  <sodipodi:namedview
     id="namedview1"
     pagecolor="#ffffff"
     bordercolor="#000000"
     borderopacity="0.25"
     inkscape:showpageshadow="2"
     inkscape:pageopacity="0.0"
     inkscape:pagecheckerboard="0"
     inkscape:deskcolor="#d1d1d1"
     inkscape:zoom="0.69318182"
     inkscape:cx="439.27869"
     inkscape:cy="440"
     inkscape:window-width="1440"
     inkscape:window-height="830"
     inkscape:window-x="-6"
     inkscape:window-y="-6"
     inkscape:window-maximized="1"
     inkscape:current-layer="g1">
    <inkscape:page
       x="0"
       y="0"
       inkscape:label="1"
       id="page1"
       width="880"
       height="880"
       margin="306.28665 10.129333 183.49466 13.273454"
       bleed="0" />
  </sodipodi:namedview>
  <g
     id="g1"
     inkscape:groupmode="layer"
     inkscape:label="1">
    <g
       id="group-MC0">
      <path
         id="path2"
         d="M 0,0 C 164.354,0 300.116,-127.458 321.226,-292.664 H -321.223 C -300.116,-127.458 -164.354,0 0,0"
         style="fill:#d7e5f2;fill-opacity:1;fill-rule:evenodd;stroke:none"
         transform="matrix(1.3333333,0,0,-1.3333333,441.57027,183.4948)"
         clip-path="url(#clipPath3)" />
      <path
         id="path4"
         d="M 435.217,229.715 H 593.238 V 342.044 H 435.217 Z"
         style="fill:#ff9100;fill-opacity:1;fill-rule:evenodd;stroke:none"
         transform="matrix(1.3333333,0,0,-1.3333333,0,880)"
         clip-path="url(#clipPath5)" />
      <path
         id="path6"
         d="m 441.164,236.972 h 144.487 v 86.144 H 441.164 Z"
         style="fill:#ffbb63;fill-opacity:1;fill-rule:evenodd;stroke:none"
         transform="matrix(1.3333333,0,0,-1.3333333,0,880)"
         clip-path="url(#clipPath7)" />
      <path
         id="path8"
         d="M 351.085,374.233 H 556.659 V 486.166 H 351.085 Z"
         style="fill:#ffdd30;fill-opacity:1;fill-rule:evenodd;stroke:none"
         transform="matrix(1.3333333,0,0,-1.3333333,0,880)"
         clip-path="url(#clipPath9)" />
      <path
         id="path10"
         d="M 374.494,374.233 H 533.25 V 449.68 H 374.494 Z"
         style="fill:#fff07f;fill-opacity:1;fill-rule:evenodd;stroke:none"
         transform="matrix(1.3333333,0,0,-1.3333333,0,880)"
         clip-path="url(#clipPath11)" />
      <path
         id="path12"
         d="m 351.085,461.019 h 205.574 v 25.146 H 351.085 Z"
         style="fill:#ffbb00;fill-opacity:1;fill-rule:evenodd;stroke:none"
         transform="matrix(1.3333333,0,0,-1.3333333,0,880)"
         clip-path="url(#clipPath13)" />
      <path
         id="path14"
         d="m 89.905,229.715 h 182.896 v 59.289 H 89.905 Z"
         style="fill:#c6de7e;fill-opacity:1;fill-rule:evenodd;stroke:none"
         transform="matrix(1.3333333,0,0,-1.3333333,0,880)"
         clip-path="url(#clipPath15)" />
      <path
         id="path16"
         d="m 151.819,249.042 h 70.508 v 20.634 h -70.508 z"
         style="fill:#f0fad2;fill-opacity:1;fill-rule:evenodd;stroke:none"
         transform="matrix(1.3333333,0,0,-1.3333333,0,880)"
         clip-path="url(#clipPath17)" />
      <path
         id="path18"
         d="M 79.918,323.952 H 281.47 v 131.67 H 79.918 Z"
         style="fill:#ffb28c;fill-opacity:1;fill-rule:evenodd;stroke:none"
         transform="matrix(1.3333333,0,0,-1.3333333,0,880)"
         clip-path="url(#clipPath19)" />
      <path
         id="path20"
         d="m 95.68,402.763 h 170.029 v 36.396 H 95.68 Z"
         style="fill:#ffd1ba;fill-opacity:1;fill-rule:evenodd;stroke:none"
         transform="matrix(1.3333333,0,0,-1.3333333,0,880)"
         clip-path="url(#clipPath21)" />
      <path
         id="path22"
         d="m 95.683,337.471 h 54.344 V 394.35 H 95.683 Z"
         style="fill:#f29364;fill-opacity:1;fill-rule:evenodd;stroke:none"
         transform="matrix(1.3333333,0,0,-1.3333333,0,880)"
         clip-path="url(#clipPath23)" />
      <path
         id="path24"
         d="M 161.868,337.471 H 265.709 V 394.35 H 161.868 Z"
         style="fill:#ffd1ba;fill-opacity:1;fill-rule:evenodd;stroke:none"
         transform="matrix(1.3333333,0,0,-1.3333333,0,880)"
         clip-path="url(#clipPath25)" />
      <path
         id="path26"
         d="M 0,0 C -1.405,1.405 -3.705,1.405 -5.111,0 L -8.99,-3.879 c -1.405,-1.405 -1.405,-3.703 0,-5.108 1.405,-1.406 3.703,-1.406 5.108,0 L 0,-5.108 C 1.405,-3.703 1.405,-1.404 0,0 m 17.394,17.395 c -3.215,3.214 -8.425,3.214 -11.64,0 -3.216,-3.213 -3.216,-8.426 0,-11.639 3.215,-3.213 8.425,-3.213 11.64,0 3.215,3.213 3.215,8.426 0,11.639 m 3.427,3.428 c 5.106,-5.107 5.106,-13.387 0,-18.494 -5.108,-5.106 -13.386,-5.106 -18.494,0 -5.109,5.107 -5.109,13.387 0,18.494 5.108,5.107 13.386,5.107 18.494,0"
         style="fill:#f0fad2;fill-opacity:1;fill-rule:evenodd;stroke:none"
         transform="matrix(1.3333333,0,0,-1.3333333,155.39907,543.92973)"
         clip-path="url(#clipPath27)" />
      <path
         id="path28"
         d="m 542.214,241.547 h 36.762 v 14.63 h -36.762 z"
         style="fill:#ff9100;fill-opacity:1;fill-rule:evenodd;stroke:none"
         transform="matrix(1.3333333,0,0,-1.3333333,0,880)"
         clip-path="url(#clipPath29)" />
      <path
         id="path30"
         d="m 0,0 h 267.76 c 2.614,0 4.752,-2.138 4.752,-4.756 v -168.63 c 0,-2.615 -2.138,-4.756 -4.752,-4.756 H 0 c -2.617,0 -4.758,2.141 -4.758,4.756 V -4.756 C -4.758,-2.138 -2.617,0 0,0"
         style="fill:#516160;fill-opacity:1;fill-rule:evenodd;stroke:none"
         transform="matrix(1.3333333,0,0,-1.3333333,263.0664,331.25587)"
         clip-path="url(#clipPath31)" />
      <path
         id="path32"
         d="M 206.663,240.139 H 455.692 V 398.741 H 206.663 Z"
         style="fill:#edf6ff;fill-opacity:1;fill-rule:evenodd;stroke:none"
         transform="matrix(1.3333333,0,0,-1.3333333,0,880)"
         clip-path="url(#clipPath33)" />
      <path
         id="path34"
         d="m 174.071,236.483 h 314.217 v 8.825 H 174.071 Z"
         style="fill:#3e4a49;fill-opacity:1;fill-rule:evenodd;stroke:none"
         transform="matrix(1.3333333,0,0,-1.3333333,0,880)"
         clip-path="url(#clipPath35)" />
      <path
         id="path36"
         d="m 0,0 h 338.725 v -0.756 c 0,-7.24 -5.905,-13.141 -13.142,-13.141 H 13.141 C 5.904,-13.897 0,-7.996 0,-0.756 Z"
         style="fill:#7c9492;fill-opacity:1;fill-rule:evenodd;stroke:none"
         transform="matrix(1.3333333,0,0,-1.3333333,215.75453,555.1836)"
         clip-path="url(#clipPath37)" />
      <path
         id="path38"
         d="M 0,0 H 75.942 C 75.55,-2.229 73.592,-3.934 71.256,-3.934 H 4.685 C 2.348,-3.934 0.393,-2.229 0,0"
         style="fill:#3e4a49;fill-opacity:1;fill-rule:evenodd;stroke:none"
         transform="matrix(1.3333333,0,0,-1.3333333,390.944,555.07427)"
         clip-path="url(#clipPath39)" />
      <path
         id="path40"
         d="m 250.783,273.091 h 160.794 v 95.134 H 250.783 Z"
         style="fill:#a3d1ff;fill-opacity:1;fill-rule:evenodd;stroke:none"
         transform="matrix(1.3333333,0,0,-1.3333333,0,880)"
         clip-path="url(#clipPath41)" />
      <path
         id="path42"
         d="M 250.783,368.225 H 411.577 V 350.821 H 250.783 Z"
         style="fill:#c7e3ff;fill-opacity:1;fill-rule:evenodd;stroke:none"
         transform="matrix(1.3333333,0,0,-1.3333333,0,880)"
         clip-path="url(#clipPath43)" />
      <path
         id="path44"
         d="m 357.662,280.59 h 44.263 v 12.256 h -44.263 z"
         style="fill:#c7e3ff;fill-opacity:1;fill-rule:evenodd;stroke:none"
         transform="matrix(1.3333333,0,0,-1.3333333,0,880)"
         clip-path="url(#clipPath45)" />
      <path
         id="path46"
         d="m 305.718,280.59 h 44.261 v 12.256 h -44.261 z"
         style="fill:#c7e3ff;fill-opacity:1;fill-rule:evenodd;stroke:none"
         transform="matrix(1.3333333,0,0,-1.3333333,0,880)"
         clip-path="url(#clipPath47)" />
    </g>
  </g>
</svg>
