<svg xmlns="http://www.w3.org/2000/svg" version="1.1" xmlns:xlink="http://www.w3.org/1999/xlink" viewBox="0 0 11.109184090372503 9.746068939410039"><g transform="matrix(0.848664512385828,0,0,0.848664512385828,1.57806994328954,6.449611767983761)"><rect width="12.847121842854381" height="12.847121842854381" x="-1.7379377524818782" y="-8.281276514891271" fill="#a5b2ba"></rect><g transform="matrix(1,0,0,1,0,0)" clip-path="url(#SvgjsClipPath13507)"><g clip-path="url(#SvgjsClipPath13502b190e923-3e97-4c5b-8231-4c8dd898b3f0)"><path d=" M 6.168714904265208 -5.86178118692816 C 6.643253409007944 -5.864728218949137 7.083011493662809 -5.613255550659692 7.321135552827933 -5.202777280920685 C 7.559259611993058 -4.7922990111816794 7.559259611993058 -4.28571666257888 7.321135552827933 -3.875238392839874 C 7.083011493662809 -3.4647601231008673 6.643253409007944 -3.213287454811422 6.168714904265208 -3.2162344868323998 L 5.09227324022717 -3.2162344868323998 C 4.956354796237101 -3.2162344868323998 4.846171127084066 -3.326418155985435 4.846171127084066 -3.462336599975504 L 4.846171127084066 -4.538778264013542 C 4.846058414713298 -5.2693199845334036 5.43817318863068 -5.861640322135892 6.16871490426489 -5.86178118692816 Z M 5.286900015028361 -3.4567248187885755 C 5.397601417689426 -3.456724818788576 5.487342635786913 -3.5464660368860628 5.487342635786913 -3.6571674395471283 C 5.487342635786913 -3.7678688422081934 5.397601417689426 -3.8576100603056798 5.286900015028361 -3.85761006030568 C 5.176198612367296 -3.85761006030568 5.086457394269809 -3.767868842208194 5.086457394269809 -3.6571674395471283 C 5.086457393477653 -3.604006754242134 5.107575393915626 -3.553023389025789 5.145165676539179 -3.515433105281958 C 5.182755959162732 -3.4778428215381276 5.233739323749711 -3.456724819580732 5.286900012041533 -3.4567248187885755 Z" fill="#102036" transform="matrix(1,0,0,1,0,0)" fill-rule="evenodd"></path></g><g clip-path="url(#SvgjsClipPath13502b190e923-3e97-4c5b-8231-4c8dd898b3f0)"><path d=" M 3.202531433625417 -5.86178118692816 C 2.7279929288826805 -5.864728218949137 2.288234844227816 -5.613255550659692 2.050110785062692 -5.202777280920685 C 1.8119867258975675 -4.7922990111816794 1.8119867258975675 -4.28571666257888 2.0501107850626923 -3.8752383928398735 C 2.288234844227817 -3.464760123100867 2.727992928882682 -3.213287454811422 3.202531433625418 -3.2162344868323998 L 4.278973097663455 -3.2162344868323998 C 4.414891541653524 -3.2162344868323998 4.525075210806558 -3.326418155985435 4.525075210806558 -3.462336599975504 L 4.525075210806558 -4.538778264013542 C 4.525142868363618 -4.8896016431907885 4.385840215380391 -5.2260823412641 4.137813677607653 -5.474194986073874 C 3.889787139834915 -5.722307630883647 3.5533548151503895 -5.86172707074565 3.2025314336241992 -5.86178118692816 Z M 4.084346322862264 -3.4567248187885755 C 4.165422434570639 -3.4567041834833234 4.238526743372747 -3.5055273748356117 4.2695675275324625 -3.5804260132365515 C 4.300608311692177 -3.6553246516374904 4.28347188669059 -3.741546962656281 4.226149713527455 -3.7988837290406896 C 4.168827540364319 -3.8562204954250987 4.0826095942172795 -3.87337886776755 4.007703056808849 -3.8423571500677824 C 3.9327965194004184 -3.811335432368015 3.883954720922346 -3.738243553881528 3.8839547182963208 -3.6571674395471283 C 3.8839547146084126 -3.5464859570749443 3.9736648436020627 -3.4567529892867785 4.084346322675776 -3.4567248187886235 Z" fill="#102036" transform="matrix(1,0,0,1,0,0)" fill-rule="evenodd"></path></g><g clip-path="url(#SvgjsClipPath13502b190e923-3e97-4c5b-8231-4c8dd898b3f0)"><path d=" M 6.168714904265208 -0.25 C 6.643253409007944 -0.24705296797902232 7.083011493662809 -0.498525636268468 7.321135552827933 -0.9090039060074737 C 7.559259611993058 -1.3194821757464803 7.559259611993058 -1.8260645243492792 7.321135552827933 -2.2365427940882863 C 7.083011493662809 -2.6470210638272924 6.643253409007944 -2.898493732116737 6.168714904265208 -2.8955467000957595 L 5.09227324022717 -2.8955467000957595 C 4.956354796237101 -2.8955467000957595 4.846171127084066 -2.7853630309427246 4.846171127084066 -2.6494445869526557 L 4.846171127084066 -1.5730029229146174 C 4.846058414713298 -0.8424612023947562 5.43817318863068 -0.25014086479226894 6.168714904264888 -0.25 Z M 5.286900015028361 -2.254222142815088 C 5.367976129362761 -2.254222145441113 5.441068007849248 -2.303063943919186 5.472089725549015 -2.3779704813276172 C 5.503111443248783 -2.4528770187360474 5.485953070906332 -2.5390949648830876 5.428616304521923 -2.5964171380462227 C 5.3712795381375145 -2.6537393112093577 5.285057227118724 -2.6708757362109448 5.210158588717784 -2.6398349520512294 C 5.135259950316845 -2.608794167891514 5.086436758964556 -2.5356898590894072 5.086457394269809 -2.4546137473810323 C 5.08645739249865 -2.401457749309015 5.107577021653664 -2.3504796277049325 5.14516877202456 -2.312897445030773 C 5.182760522395457 -2.2753152623566133 5.23374401831264 -2.2542086102775065 5.286900014845225 -2.254222142815042 Z" fill="#102036" transform="matrix(1,0,0,1,0,0)" fill-rule="evenodd"></path></g><g clip-path="url(#SvgjsClipPath13502b190e923-3e97-4c5b-8231-4c8dd898b3f0)"><path d=" M 3.202531433625417 -0.25 C 2.7279929288826805 -0.24705296797902232 2.288234844227816 -0.498525636268468 2.050110785062692 -0.9090039060074737 C 1.8119867258975675 -1.3194821757464803 1.8119867258975675 -1.8260645243492801 2.0501107850626923 -2.2365427940882863 C 2.288234844227817 -2.647021063827293 2.727992928882682 -2.8984937321167377 3.202531433625418 -2.8955467000957595 L 4.278973097663455 -2.8955467000957595 C 4.414891541653524 -2.8955467000957595 4.525075210806558 -2.7853630309427246 4.525075210806558 -2.6494445869526557 L 4.525075210806558 -1.5730029229146174 C 4.525142868363821 -1.2221795437381333 4.385840215380787 -0.8856988456647397 4.137813677608191 -0.6375862008548241 C 3.889787139835596 -0.3894735560449085 3.5533548151511507 -0.2500541161827101 3.2025314336249604 -0.25 Z M 4.084346322862264 -2.254222142815088 C 4.165427076603093 -2.2542015089538645 4.238534612047923 -2.3030302216273175 4.269572405542874 -2.3779351241898468 C 4.300610199037824 -2.452840026752376 4.283464421591809 -2.5390663408098355 4.226131668941439 -2.5963990934602053 C 4.168798916291069 -2.6537318461105763 4.082572602233609 -2.6708776235565916 4.00766769967108 -2.639839830061642 C 3.9327627971085506 -2.6088020365666917 3.8839340844350967 -2.5356945011218603 3.8839547182963208 -2.4546137473810314 C 3.8839828800383707 -2.3439521872597897 3.9736847627409215 -2.254250304557194 4.084346322862213 -2.254222142815088 Z" fill="#102036" transform="matrix(1,0,0,1,0,0)" fill-rule="evenodd"></path></g></g><g><path d=" M 3.019159790039062 -2.220446049250313e-16 L 2.759659790039062 1.0574999999999999 L 2.398159790039062 1.0574999999999999 L 2.2526597900390617 0.40949999999999986 L 2.104159790039062 1.0574999999999999 L 1.7426597900390617 1.0574999999999999 L 1.4861597900390617 -2.220446049250313e-16 L 1.8041597900390618 -2.220446049250313e-16 L 1.9271597900390618 0.7229999999999999 L 2.093659790039062 -2.220446049250313e-16 L 2.4161597900390617 -2.220446049250313e-16 L 2.578159790039062 0.7169999999999999 L 2.701159790039062 -2.220446049250313e-16 L 3.019159790039062 -2.220446049250313e-16 M 3.436142944335937 0.23549999999999982 L 3.436142944335937 0.4079999999999999 L 3.7736429443359367 0.4079999999999999 L 3.7736429443359367 0.6315 L 3.436142944335937 0.6315 L 3.436142944335937 0.8219999999999998 L 3.8186429443359367 0.8219999999999998 L 3.8186429443359367 1.0574999999999999 L 3.1421429443359368 1.0574999999999999 L 3.1421429443359368 -2.220446049250313e-16 L 3.8186429443359367 -2.220446049250313e-16 L 3.8186429443359367 0.23549999999999982 L 3.436142944335937 0.23549999999999982 M 4.785353393554686 0.6067499999999999 Q 4.840103393554687 0.6779999999999999 4.840103393554687 0.7694999999999999 Q 4.840103393554687 0.9044999999999999 4.747103393554687 0.9809999999999999 Q 4.654103393554687 1.0574999999999999 4.486103393554687 1.0574999999999999 L 3.9626033935546867 1.0574999999999999 L 3.9626033935546867 -2.220446049250313e-16 L 4.469603393554687 -2.220446049250313e-16 Q 4.631603393554687 -2.220446049250313e-16 4.723853393554687 0.07199999999999984 Q 4.816103393554687 0.1439999999999999 4.816103393554687 0.27449999999999986 Q 4.816103393554687 0.3674999999999998 4.767353393554687 0.42974999999999985 Q 4.7186033935546865 0.4919999999999999 4.637603393554687 0.5144999999999998 Q 4.730603393554687 0.5354999999999999 4.785353393554686 0.6067499999999999 M 4.256603393554687 0.4199999999999998 L 4.405103393554686 0.4199999999999998 Q 4.516103393554687 0.4199999999999998 4.516103393554687 0.3284999999999999 Q 4.516103393554687 0.23399999999999987 4.405103393554686 0.23399999999999987 L 4.256603393554687 0.23399999999999987 L 4.256603393554687 0.4199999999999998 M 4.538603393554687 0.7274999999999998 Q 4.538603393554687 0.6794999999999999 4.509353393554687 0.6539999999999999 Q 4.480103393554686 0.6284999999999998 4.426103393554687 0.6284999999999998 L 4.256603393554687 0.6284999999999998 L 4.256603393554687 0.8204999999999999 L 4.427603393554687 0.8204999999999999 Q 4.538603393554687 0.8204999999999999 4.538603393554687 0.7274999999999998 M 5.6778841552734365 0.06674999999999986 Q 5.803134155273437 0.13349999999999984 5.870634155273437 0.25349999999999984 Q 5.938134155273437 0.37349999999999983 5.938134155273437 0.5279999999999999 Q 5.938134155273437 0.6809999999999998 5.869884155273437 0.8009999999999999 Q 5.801634155273437 0.9209999999999998 5.676384155273436 0.9892499999999999 Q 5.551134155273436 1.0574999999999999 5.386134155273437 1.0574999999999999 L 4.967634155273436 1.0574999999999999 L 4.967634155273436 -2.220446049250313e-16 L 5.386134155273437 -2.220446049250313e-16 Q 5.552634155273436 -2.220446049250313e-16 5.6778841552734365 0.06674999999999986 M 5.566134155273437 0.7274999999999998 Q 5.639634155273437 0.6569999999999998 5.639634155273437 0.5279999999999999 Q 5.639634155273437 0.39749999999999985 5.566134155273437 0.3262499999999998 Q 5.492634155273437 0.2549999999999999 5.363634155273436 0.2549999999999999 L 5.261634155273437 0.2549999999999999 L 5.261634155273437 0.7979999999999998 L 5.363634155273436 0.7979999999999998 Q 5.492634155273437 0.7979999999999998 5.566134155273437 0.7274999999999998 M 6.362612182617187 0.23549999999999982 L 6.362612182617187 0.4079999999999999 L 6.700112182617186 0.4079999999999999 L 6.700112182617186 0.6315 L 6.362612182617187 0.6315 L 6.362612182617187 0.8219999999999998 L 6.745112182617187 0.8219999999999998 L 6.745112182617187 1.0574999999999999 L 6.068612182617186 1.0574999999999999 L 6.068612182617186 -2.220446049250313e-16 L 6.745112182617187 -2.220446049250313e-16 L 6.745112182617187 0.23549999999999982 L 6.362612182617187 0.23549999999999982 M 7.918072631835937 -2.220446049250313e-16 L 7.553572631835936 1.0574999999999999 L 7.177072631835936 1.0574999999999999 L 6.811072631835937 -2.220446049250313e-16 L 7.126072631835936 -2.220446049250313e-16 L 7.366072631835936 0.7634999999999998 L 7.604572631835937 -2.220446049250313e-16 L 7.918072631835937 -2.220446049250313e-16" fill="#102036" fill-rule="nonzero"></path></g><g><path d=" M 0.0585 1.7379749999999998 Q 0.09225 1.6768499999999997 0.152625 1.6427249999999998 Q 0.213 1.6085999999999998 0.2895 1.6085999999999998 Q 0.38325000000000004 1.6085999999999998 0.45 1.6580999999999997 Q 0.51675 1.7075999999999998 0.53925 1.7930999999999997 L 0.39825 1.7930999999999997 Q 0.3825 1.7600999999999998 0.353625 1.7428499999999998 Q 0.32475 1.7255999999999998 0.28800000000000003 1.7255999999999998 Q 0.22875 1.7255999999999998 0.192 1.7668499999999998 Q 0.15525 1.8080999999999998 0.15525 1.8770999999999998 Q 0.15525 1.9460999999999997 0.192 1.9873499999999997 Q 0.22875 2.0286 0.28800000000000003 2.0286 Q 0.32475 2.0286 0.353625 2.0113499999999997 Q 0.3825 1.9940999999999998 0.39825 1.9610999999999998 L 0.53925 1.9610999999999998 Q 0.51675 2.0465999999999998 0.45 2.095725 Q 0.38325000000000004 2.14485 0.2895 2.14485 Q 0.213 2.14485 0.152625 2.110725 Q 0.09225 2.0766 0.0585 2.01585 Q 0.02475 1.9550999999999998 0.02475 1.8770999999999998 Q 0.02475 1.7990999999999997 0.0585 1.7379749999999998 M 0.8865179443359374 2.1411 L 0.7770179443359375 1.9423499999999998 L 0.7462679443359375 1.9423499999999998 L 0.7462679443359375 2.1411 L 0.6180179443359375 2.1411 L 0.6180179443359375 1.6145999999999998 L 0.8332679443359374 1.6145999999999998 Q 0.8955179443359376 1.6145999999999998 0.9393929443359375 1.6363499999999997 Q 0.9832679443359376 1.6580999999999997 1.0050179443359375 1.6959749999999998 Q 1.0267679443359374 1.73385 1.0267679443359374 1.7803499999999999 Q 1.0267679443359374 1.8328499999999996 0.9971429443359375 1.8740999999999999 Q 0.9675179443359375 1.9153499999999997 0.9097679443359374 1.9325999999999999 L 1.0312679443359376 2.1411 L 0.8865179443359374 2.1411 M 0.7462679443359375 1.8516 L 0.8257679443359376 1.8516 Q 0.8610179443359375 1.8516 0.8786429443359375 1.8343499999999997 Q 0.8962679443359375 1.8170999999999997 0.8962679443359375 1.7855999999999999 Q 0.8962679443359375 1.7555999999999998 0.8786429443359375 1.7383499999999998 Q 0.8610179443359375 1.7210999999999999 0.8257679443359376 1.7210999999999999 L 0.7462679443359375 1.7210999999999999 L 0.7462679443359375 1.8516 M 1.2352510986328125 1.7173499999999997 L 1.2352510986328125 1.8238499999999997 L 1.4070010986328125 1.8238499999999997 L 1.4070010986328125 1.9228499999999997 L 1.2352510986328125 1.9228499999999997 L 1.2352510986328125 2.03835 L 1.4295010986328125 2.03835 L 1.4295010986328125 2.1411 L 1.1070010986328125 2.1411 L 1.1070010986328125 1.6145999999999998 L 1.4295010986328125 1.6145999999999998 L 1.4295010986328125 1.7173499999999997 L 1.2352510986328125 1.7173499999999997 M 1.3522510986328125 1.5088499999999998 L 1.1715010986328125 1.5845999999999998 L 1.1715010986328125 1.4960999999999998 L 1.3522510986328125 1.4090999999999998 L 1.3522510986328125 1.5088499999999998 M 1.8405128173828125 2.0481 L 1.6440128173828126 2.0481 L 1.6125128173828125 2.1411 L 1.4782628173828125 2.1411 L 1.6687628173828126 1.6145999999999998 L 1.8172628173828125 1.6145999999999998 L 2.0077628173828126 2.1411 L 1.8720128173828126 2.1411 L 1.8405128173828125 2.0481 M 1.8075128173828126 1.9490999999999998 L 1.7422628173828125 1.7563499999999999 L 1.6777628173828125 1.9490999999999998 L 1.8075128173828126 1.9490999999999998 M 2.444262451171875 1.6145999999999998 L 2.444262451171875 1.7173499999999997 L 2.304762451171875 1.7173499999999997 L 2.304762451171875 2.1411 L 2.176512451171875 2.1411 L 2.176512451171875 1.7173499999999997 L 2.037012451171875 1.7173499999999997 L 2.037012451171875 1.6145999999999998 L 2.444262451171875 1.6145999999999998 M 2.6370150146484375 1.7173499999999997 L 2.6370150146484375 1.8238499999999997 L 2.8087650146484373 1.8238499999999997 L 2.8087650146484373 1.9228499999999997 L 2.6370150146484375 1.9228499999999997 L 2.6370150146484375 2.03835 L 2.8312650146484373 2.03835 L 2.8312650146484373 2.1411 L 2.5087650146484375 2.1411 L 2.5087650146484375 1.6145999999999998 L 2.8312650146484373 1.6145999999999998 L 2.8312650146484373 1.7173499999999997 L 2.6370150146484375 1.7173499999999997 M 3.0405267333984374 1.6145999999999998 L 3.0405267333984374 1.9295999999999998 Q 3.0405267333984374 1.9768499999999998 3.0637767333984374 2.00235 Q 3.0870267333984374 2.02785 3.1320267333984377 2.02785 Q 3.1770267333984377 2.02785 3.2010267333984377 2.00235 Q 3.2250267333984377 1.9768499999999998 3.2250267333984377 1.9295999999999998 L 3.2250267333984377 1.6145999999999998 L 3.3532767333984377 1.6145999999999998 L 3.3532767333984377 1.9288499999999997 Q 3.3532767333984377 1.9993499999999997 3.3232767333984374 2.0481 Q 3.2932767333984376 2.09685 3.2426517333984375 2.1216 Q 3.1920267333984373 2.14635 3.1297767333984376 2.14635 Q 3.0675267333984375 2.14635 3.0184017333984374 2.121975 Q 2.9692767333984373 2.0976 2.9407767333984376 2.048475 Q 2.9122767333984374 1.9993499999999997 2.9122767333984374 1.9288499999999997 L 2.9122767333984374 1.6145999999999998 L 3.0405267333984374 1.6145999999999998 M 3.71178955078125 2.1411 L 3.60228955078125 1.9423499999999998 L 3.57153955078125 1.9423499999999998 L 3.57153955078125 2.1411 L 3.44328955078125 2.1411 L 3.44328955078125 1.6145999999999998 L 3.65853955078125 1.6145999999999998 Q 3.72078955078125 1.6145999999999998 3.76466455078125 1.6363499999999997 Q 3.80853955078125 1.6580999999999997 3.83028955078125 1.6959749999999998 Q 3.85203955078125 1.73385 3.85203955078125 1.7803499999999999 Q 3.85203955078125 1.8328499999999996 3.82241455078125 1.8740999999999999 Q 3.79278955078125 1.9153499999999997 3.73503955078125 1.9325999999999999 L 3.85653955078125 2.1411 L 3.71178955078125 2.1411 M 3.57153955078125 1.8516 L 3.65103955078125 1.8516 Q 3.68628955078125 1.8516 3.70391455078125 1.8343499999999997 Q 3.72153955078125 1.8170999999999997 3.72153955078125 1.7855999999999999 Q 3.72153955078125 1.7555999999999998 3.70391455078125 1.7383499999999998 Q 3.68628955078125 1.7210999999999999 3.65103955078125 1.7210999999999999 L 3.57153955078125 1.7210999999999999 L 3.57153955078125 1.8516 M 4.434004028320312 1.6475999999999997 Q 4.496254028320313 1.6805999999999996 4.530379028320312 1.7402249999999997 Q 4.564504028320313 1.7998499999999997 4.564504028320313 1.8778499999999998 Q 4.564504028320313 1.9550999999999998 4.530379028320312 2.0151 Q 4.496254028320313 2.0751 4.433629028320312 2.1081 Q 4.371004028320312 2.1411 4.288504028320313 2.1411 L 4.0912540283203125 2.1411 L 4.0912540283203125 1.6145999999999998 L 4.288504028320313 1.6145999999999998 Q 4.3717540283203125 1.6145999999999998 4.434004028320312 1.6475999999999997 M 4.393504028320312 1.9903499999999998 Q 4.434004028320312 1.9505999999999997 4.434004028320312 1.8778499999999998 Q 4.434004028320312 1.8050999999999997 4.393504028320312 1.7645999999999997 Q 4.353004028320313 1.7240999999999997 4.2802540283203125 1.7240999999999997 L 4.219504028320313 1.7240999999999997 L 4.219504028320313 2.0300999999999996 L 4.2802540283203125 2.0300999999999996 Q 4.353004028320313 2.0300999999999996 4.393504028320312 1.9903499999999998 M 4.764746337890625 1.7173499999999997 L 4.764746337890625 1.8238499999999997 L 4.936496337890625 1.8238499999999997 L 4.936496337890625 1.9228499999999997 L 4.764746337890625 1.9228499999999997 L 4.764746337890625 2.03835 L 4.958996337890625 2.03835 L 4.958996337890625 2.1411 L 4.636496337890625 2.1411 L 4.636496337890625 1.6145999999999998 L 4.958996337890625 1.6145999999999998 L 4.958996337890625 1.7173499999999997 L 4.764746337890625 1.7173499999999997 M 5.288239379882812 2.1275999999999997 Q 5.242489379882812 2.10885 5.215114379882812 2.0721 Q 5.187739379882813 2.0353499999999998 5.186239379882813 1.9835999999999998 L 5.322739379882813 1.9835999999999998 Q 5.325739379882813 2.01285 5.3429893798828125 2.028225 Q 5.360239379882812 2.0435999999999996 5.3879893798828125 2.0435999999999996 Q 5.416489379882813 2.0435999999999996 5.432989379882812 2.0304749999999996 Q 5.449489379882812 2.01735 5.449489379882812 1.9940999999999998 Q 5.449489379882812 1.9745999999999997 5.4363643798828125 1.9618499999999999 Q 5.423239379882813 1.9490999999999998 5.404114379882812 1.9408499999999997 Q 5.384989379882812 1.9325999999999999 5.349739379882813 1.9220999999999997 Q 5.298739379882813 1.9063499999999998 5.266489379882812 1.8905999999999998 Q 5.234239379882813 1.87485 5.210989379882813 1.8440999999999999 Q 5.187739379882813 1.8133499999999998 5.187739379882813 1.7638499999999997 Q 5.187739379882813 1.6903499999999998 5.240989379882812 1.6487249999999998 Q 5.2942393798828125 1.6070999999999998 5.379739379882812 1.6070999999999998 Q 5.466739379882813 1.6070999999999998 5.519989379882812 1.6487249999999998 Q 5.573239379882812 1.6903499999999998 5.5769893798828125 1.7645999999999997 L 5.438239379882813 1.7645999999999997 Q 5.4367393798828125 1.7390999999999996 5.419489379882813 1.7244749999999998 Q 5.402239379882812 1.7098499999999999 5.375239379882813 1.7098499999999999 Q 5.351989379882813 1.7098499999999999 5.337739379882812 1.722225 Q 5.323489379882813 1.7345999999999997 5.323489379882813 1.7578499999999997 Q 5.323489379882813 1.7833499999999998 5.347489379882813 1.7975999999999996 Q 5.371489379882813 1.8118499999999997 5.422489379882813 1.8283499999999997 Q 5.473489379882812 1.8455999999999997 5.5053643798828125 1.8613499999999998 Q 5.537239379882813 1.8770999999999998 5.560489379882813 1.9070999999999998 Q 5.583739379882813 1.9370999999999998 5.583739379882813 1.9843499999999998 Q 5.583739379882813 2.02935 5.560864379882813 2.0660999999999996 Q 5.537989379882813 2.1028499999999997 5.494489379882813 2.1245999999999996 Q 5.450989379882812 2.14635 5.391739379882813 2.14635 Q 5.333989379882812 2.14635 5.288239379882812 2.1275999999999997 M 5.775357055664062 2.1118499999999996 Q 5.713482055664063 2.0773499999999996 5.677107055664062 2.015475 Q 5.6407320556640625 1.9535999999999998 5.6407320556640625 1.8763499999999997 Q 5.6407320556640625 1.7990999999999997 5.677107055664062 1.7375999999999998 Q 5.713482055664063 1.6760999999999997 5.775357055664062 1.6415999999999997 Q 5.837232055664063 1.6070999999999998 5.911482055664062 1.6070999999999998 Q 5.985732055664062 1.6070999999999998 6.047607055664063 1.6415999999999997 Q 6.1094820556640625 1.6760999999999997 6.145107055664062 1.7375999999999998 Q 6.180732055664063 1.7990999999999997 6.180732055664063 1.8763499999999997 Q 6.180732055664063 1.9535999999999998 6.144732055664063 2.015475 Q 6.1087320556640625 2.0773499999999996 6.047232055664063 2.1118499999999996 Q 5.985732055664062 2.14635 5.911482055664062 2.14635 Q 5.837232055664063 2.14635 5.775357055664062 2.1118499999999996 M 6.012357055664062 1.9873499999999997 Q 6.050232055664063 1.9453499999999997 6.050232055664063 1.8763499999999997 Q 6.050232055664063 1.8065999999999998 6.012357055664062 1.7649749999999997 Q 5.974482055664063 1.7233499999999997 5.911482055664062 1.7233499999999997 Q 5.847732055664062 1.7233499999999997 5.809857055664063 1.7645999999999997 Q 5.771982055664062 1.8058499999999997 5.771982055664062 1.8763499999999997 Q 5.771982055664062 1.9460999999999997 5.809857055664063 1.9877249999999997 Q 5.847732055664062 2.02935 5.911482055664062 2.02935 Q 5.974482055664063 2.02935 6.012357055664062 1.9873499999999997 M 6.380240112304688 2.0420999999999996 L 6.548240112304687 2.0420999999999996 L 6.548240112304687 2.1411 L 6.2519901123046875 2.1411 L 6.2519901123046875 1.6145999999999998 L 6.380240112304688 1.6145999999999998 L 6.380240112304688 2.0420999999999996 M 6.735732421875 1.6145999999999998 L 6.735732421875 1.9295999999999998 Q 6.735732421875 1.9768499999999998 6.758982421875 2.00235 Q 6.782232421875 2.02785 6.827232421875 2.02785 Q 6.872232421875 2.02785 6.896232421875 2.00235 Q 6.920232421875 1.9768499999999998 6.920232421875 1.9295999999999998 L 6.920232421875 1.6145999999999998 L 7.048482421875 1.6145999999999998 L 7.048482421875 1.9288499999999997 Q 7.048482421875 1.9993499999999997 7.018482421875 2.0481 Q 6.988482421875 2.09685 6.937857421875 2.1216 Q 6.887232421875 2.14635 6.824982421875 2.14635 Q 6.7627324218750005 2.14635 6.713607421875 2.121975 Q 6.664482421875 2.0976 6.635982421875 2.048475 Q 6.607482421875 1.9993499999999997 6.607482421875 1.9288499999999997 L 6.607482421875 1.6145999999999998 L 6.735732421875 1.6145999999999998 M 7.517245239257813 1.6145999999999998 L 7.517245239257813 1.7173499999999997 L 7.377745239257813 1.7173499999999997 L 7.377745239257813 2.1411 L 7.249495239257812 2.1411 L 7.249495239257812 1.7173499999999997 L 7.109995239257812 1.7173499999999997 L 7.109995239257812 1.6145999999999998 L 7.517245239257813 1.6145999999999998 M 7.709997802734375 1.6145999999999998 L 7.709997802734375 2.1411 L 7.581747802734375 2.1411 L 7.581747802734375 1.6145999999999998 L 7.709997802734375 1.6145999999999998 M 7.915859985351562 2.1118499999999996 Q 7.853984985351563 2.0773499999999996 7.817609985351562 2.015475 Q 7.7812349853515625 1.9535999999999998 7.7812349853515625 1.8763499999999997 Q 7.7812349853515625 1.7990999999999997 7.817609985351562 1.7375999999999998 Q 7.853984985351563 1.6760999999999997 7.915859985351562 1.6415999999999997 Q 7.977734985351563 1.6070999999999998 8.051984985351563 1.6070999999999998 Q 8.126234985351562 1.6070999999999998 8.188109985351563 1.6415999999999997 Q 8.249984985351562 1.6760999999999997 8.285609985351563 1.7375999999999998 Q 8.321234985351563 1.7990999999999997 8.321234985351563 1.8763499999999997 Q 8.321234985351563 1.9535999999999998 8.285234985351563 2.015475 Q 8.249234985351563 2.0773499999999996 8.187734985351563 2.1118499999999996 Q 8.126234985351562 2.14635 8.051984985351563 2.14635 Q 7.977734985351563 2.14635 7.915859985351562 2.1118499999999996 M 8.152859985351563 1.9873499999999997 Q 8.190734985351563 1.9453499999999997 8.190734985351563 1.8763499999999997 Q 8.190734985351563 1.8065999999999998 8.152859985351563 1.7649749999999997 Q 8.114984985351562 1.7233499999999997 8.051984985351563 1.7233499999999997 Q 7.988234985351562 1.7233499999999997 7.950359985351563 1.7645999999999997 Q 7.912484985351562 1.8058499999999997 7.912484985351562 1.8763499999999997 Q 7.912484985351562 1.9460999999999997 7.950359985351563 1.9877249999999997 Q 7.988234985351562 2.02935 8.051984985351563 2.02935 Q 8.114984985351562 2.02935 8.152859985351563 1.9873499999999997 M 8.863493041992188 2.1411 L 8.735243041992188 2.1411 L 8.520743041992187 1.81635 L 8.520743041992187 2.1411 L 8.392493041992187 2.1411 L 8.392493041992187 1.6145999999999998 L 8.520743041992187 1.6145999999999998 L 8.735243041992188 1.9408499999999997 L 8.735243041992188 1.6145999999999998 L 8.863493041992188 1.6145999999999998 L 8.863493041992188 2.1411 M 9.043503662109375 2.1275999999999997 Q 8.997753662109375 2.10885 8.970378662109376 2.0721 Q 8.943003662109374 2.0353499999999998 8.941503662109374 1.9835999999999998 L 9.078003662109374 1.9835999999999998 Q 9.081003662109374 2.01285 9.098253662109375 2.028225 Q 9.115503662109376 2.0435999999999996 9.143253662109375 2.0435999999999996 Q 9.171753662109374 2.0435999999999996 9.188253662109375 2.0304749999999996 Q 9.204753662109376 2.01735 9.204753662109376 1.9940999999999998 Q 9.204753662109376 1.9745999999999997 9.191628662109375 1.9618499999999999 Q 9.178503662109375 1.9490999999999998 9.159378662109376 1.9408499999999997 Q 9.140253662109375 1.9325999999999999 9.105003662109375 1.9220999999999997 Q 9.054003662109375 1.9063499999999998 9.021753662109376 1.8905999999999998 Q 8.989503662109374 1.87485 8.966253662109375 1.8440999999999999 Q 8.943003662109374 1.8133499999999998 8.943003662109374 1.7638499999999997 Q 8.943003662109374 1.6903499999999998 8.996253662109375 1.6487249999999998 Q 9.049503662109375 1.6070999999999998 9.135003662109375 1.6070999999999998 Q 9.222003662109374 1.6070999999999998 9.275253662109375 1.6487249999999998 Q 9.328503662109375 1.6903499999999998 9.332253662109375 1.7645999999999997 L 9.193503662109375 1.7645999999999997 Q 9.192003662109375 1.7390999999999996 9.174753662109374 1.7244749999999998 Q 9.157503662109375 1.7098499999999999 9.130503662109374 1.7098499999999999 Q 9.107253662109375 1.7098499999999999 9.093003662109375 1.722225 Q 9.078753662109374 1.7345999999999997 9.078753662109374 1.7578499999999997 Q 9.078753662109374 1.7833499999999998 9.102753662109375 1.7975999999999996 Q 9.126753662109374 1.8118499999999997 9.177753662109374 1.8283499999999997 Q 9.228753662109375 1.8455999999999997 9.260628662109376 1.8613499999999998 Q 9.292503662109375 1.8770999999999998 9.315753662109374 1.9070999999999998 Q 9.339003662109375 1.9370999999999998 9.339003662109375 1.9843499999999998 Q 9.339003662109375 2.02935 9.316128662109374 2.0660999999999996 Q 9.293253662109375 2.1028499999999997 9.249753662109375 2.1245999999999996 Q 9.206253662109376 2.14635 9.147003662109375 2.14635 Q 9.089253662109375 2.14635 9.043503662109375 2.1275999999999997" fill="#102036" fill-rule="nonzero"></path></g></g><defs><clipPath id="SvgjsClipPath13507"><path d=" M 1.8797325754812326 -5.86178118692816 h 5.61178118692816 v 5.61178118692816 h -5.61178118692816 Z"></path></clipPath><clipPath id="SvgjsClipPath13502b190e923-3e97-4c5b-8231-4c8dd898b3f0"><path d=" M 1.8797325754812326 -5.86178118692816 L 7.491513762409392 -5.86178118692816 L 7.491513762409392 -0.25 L 1.8797325754812326 -0.25 Z"></path></clipPath></defs></svg>