<svg xmlns="http://www.w3.org/2000/svg" version="1.1" xmlns:xlink="http://www.w3.org/1999/xlink" viewBox="0 0 8.574576358971333 8.574576358971333"><g transform="matrix(0.8571428571428571,0,0,0.8571428571428571,2.8924012164996884,3.2273102804391303)"><rect width="10.003672418799889" height="10.003672418799889" x="-3.3744680859163028" y="-3.7651953271789855" fill="#ffffff"></rect><g><path d=" M -0.2179596445830727 -1.4008669374778018 L -0.11190689921445152 -1.45931786979578 L 0.18050208413048868 -1.0451058697802575 L 0.2428624082370406 -0.9451105088379028 L 0.2535532091814581 -0.9510027399183443 L 0.19994459317611435 -1.0725475639930533 L 0.04246826642293661 -1.5444016865973533 L 0.13098809824271318 -1.5931893599434082 L 0.4424119585955023 -1.2061833648974636 L 0.5148363842630208 -1.0950088675243315 L 0.5259548172452149 -1.1011367878479903 L 0.4742852940830805 -1.2070243798707865 L 0.2759553590490139 -1.673088013394193 L 0.38243573645541185 -1.731774634955389 L 0.6827889068425356 -0.9450493853037688 L 0.5703216809072639 -0.8830631143375256 L 0.31652469489905466 -1.2009168340585057 L 0.21356782540817715 -1.34321114484321 L 0.20501518465264318 -1.338497359978857 L 0.27076806685694793 -1.1756980850342165 L 0.40097939394769133 -0.7897301740233342 L 0.28979506412574974 -0.7284509707867439 L -0.2179596445830727 -1.4008669374778018 M 0.6808925210808237 -1.8236625590289508 L 0.979671219578369 -1.9028016224915598 L 1.005175751879115 -1.8065127528335831 L 0.8286461575061577 -1.7597544436155488 L 0.8925325104751833 -1.5185602652075776 L 1.0289417424906504 -1.554691685966968 L 1.0544462747913963 -1.4584028163089913 L 0.9180370427759293 -1.422271395549601 L 0.9911750398148335 -1.146148901677462 L 1.1724246768180837 -1.1941574330671016 L 1.1979292091188298 -1.097868563409125 L 0.8944304679909915 -1.0174792777749107 L 0.6808925210808237 -1.8236625590289508 M 1.2555984684892108 -1.9476619414644496 L 1.383307835203871 -1.955166779716412 Q 1.411579374400246 -1.956828156123335 1.4419152526037453 -1.956654348889606 Q 1.4722511308072443 -1.9564805416558773 1.5013824878051087 -1.9518338381809734 Q 1.530513844802973 -1.9471871347060696 1.5570786150751181 -1.936275560569162 Q 1.5836433853472633 -1.9253639864322543 1.6041289885154446 -1.905535506822415 Q 1.6246145916836257 -1.8857070272125758 1.6378883601828398 -1.8554277100848666 Q 1.6511621286820541 -1.8251483929571575 1.6537114821340566 -1.7817662035006507 L 1.656088969061205 -1.741308656029976 Q 1.6580367896762183 -1.708162713523881 1.6501644352083784 -1.6798200484527022 Q 1.6422920807405388 -1.651477383381523 1.6279400224546274 -1.629357107518353 Q 1.6135879641687163 -1.6072368316551833 1.5944192765919218 -1.592170360969312 Q 1.5752505890151274 -1.5771038902834407 1.5545770989914223 -1.5709977768789332 L 1.5548062543578944 -1.5670982542311571 Q 1.6173699980699439 -1.5595249680615466 1.6516027304465162 -1.5138471009339598 Q 1.6858354628230883 -1.468169233806373 1.6901894147860588 -1.394078303498631 L 1.6926814793964433 -1.3516709947040684 Q 1.6953454105316819 -1.3063390439236737 1.687315026572174 -1.272362170625508 Q 1.679284642612666 -1.2383852973273421 1.6626386047759398 -1.2136845977052673 Q 1.6459925669392137 -1.1889838980831924 1.6220210871047218 -1.172412382361801 Q 1.5980496072702302 -1.1558408666404094 1.568817024445097 -1.1455633511790497 Q 1.5395844416199638 -1.1352858357176898 1.5061372475181551 -1.1301410085305499 Q 1.472690053416347 -1.1249961813434097 1.437106909255392 -1.1229051386243514 L 1.304523139231012 -1.1151138561642988 L 1.2555984684892108 -1.9476619414644496 M 1.4247194007160857 -1.6000509634498696 Q 1.450066297926629 -1.6015404733319385 1.4706681768983116 -1.608865187563876 Q 1.4912700558699943 -1.6161899017958135 1.5053779088132009 -1.6299807254012462 Q 1.5194857617564075 -1.6437715490066789 1.5263111393330622 -1.6649603960163368 Q 1.5331365169097166 -1.6861492430259952 1.5314178516611756 -1.715395662884314 L 1.5294127422045443 -1.7495164860523533 Q 1.5276940769560032 -1.7787629059106722 1.5205271496271247 -1.8008414280856755 Q 1.513360222298246 -1.8229199502606785 1.499038991730628 -1.837730319279534 Q 1.4847177611630098 -1.8525406882983897 1.4625540334914078 -1.859308777033426 Q 1.4403903058198055 -1.8660768657684628 1.4091941246375985 -1.8642436228366854 L 1.3848221080889993 -1.8628114017962347 L 1.4003473841674865 -1.5986187424094187 L 1.4247194007160857 -1.6000509634498696 M 1.4592475720442 -1.2122484857646139 Q 1.4845944692547433 -1.2137379956466827 1.504923983640131 -1.2215358279991877 Q 1.5252534980255186 -1.2293336603516927 1.539304062127107 -1.2440993646190692 Q 1.5533546262286957 -1.258865068886446 1.5601370371741368 -1.2807850763925621 Q 1.5669194481195778 -1.3027050838986782 1.5652007828710368 -1.3319515037569973 L 1.5613910749034374 -1.3967810677762713 Q 1.5596724096548964 -1.4260274876345904 1.5524911601156133 -1.4483497299750794 Q 1.5453099105763302 -1.4706719723155686 1.5310030022191166 -1.4852386211689381 Q 1.5166960938619027 -1.499805270022308 1.4947760863557868 -1.5065876809677488 Q 1.4728560788496707 -1.5133700919131898 1.4416598976674635 -1.5115368489814127 L 1.4055893131755366 -1.5094171618415455 L 1.423176987552273 -1.2101287986247464 L 1.4592475720442 -1.2122484857646139 M 1.96904454573477 -1.9512308367294975 L 2.0986004256916733 -1.9296095330925596 Q 2.12797926835848 -1.9247065608923617 2.159244084620368 -1.917756222721103 Q 2.1905089008822562 -1.9108058845498441 2.219163395424418 -1.8971131807709114 Q 2.24781788996658 -1.883420476991979 2.2715336983354386 -1.8608988121212207 Q 2.2952495067042973 -1.8383771472504624 2.310052142253355 -1.8024919552436136 Q 2.3248547778024133 -1.7666067632367648 2.3284158760780933 -1.7152714486096734 Q 2.3319769743537737 -1.6639361339825822 2.3200812385237852 -1.592656318987706 L 2.2802144481746356 -1.3537726146805538 Q 2.268318712344647 -1.2824927996856779 2.2482402241158415 -1.2348551279516404 Q 2.228161735887036 -1.1872174562176032 2.202548448519509 -1.1583247082460004 Q 2.176935161151982 -1.1294319602743979 2.1471911082746833 -1.1158320972761309 Q 2.1174470553973848 -1.102232234277864 2.0858990034911713 -1.0985866046796646 Q 2.0543509515849583 -1.0949409750814654 2.0225234991689494 -1.098519970651615 Q 1.9906960467529404 -1.1020989662217648 1.9613172040861333 -1.1070019384219627 L 1.83176132412923 -1.1286232420589006 L 1.96904454573477 -1.9512308367294975 M 2.002836108308707 -1.1896741364462413 Q 2.0365495343197972 -1.1840477749050307 2.059910039909031 -1.1890598065918097 Q 2.0832705454982654 -1.1940718382785886 2.0996906203471077 -1.213855585459482 Q 2.11611069519595 -1.233639332640375 2.1272364614973207 -1.2706427658754957 Q 2.1383622277986913 -1.3076461991106165 2.1480074190121954 -1.3654406437010567 L 2.1906070135385045 -1.6206994406421669 Q 2.2002522047520086 -1.6784938852326068 2.201745563621639 -1.717104850336645 Q 2.2032389224912694 -1.7557158154406833 2.194133117646001 -1.7797595220742073 Q 2.1850273128007323 -1.8038032287077312 2.1645603645755496 -1.8161295303980842 Q 2.1440934163503664 -1.8284558320884372 2.1103799903392764 -1.8340821936296479 L 2.0785930458145345 -1.8393870487970752 L 1.971049163783965 -1.1949789916136684 L 2.002836108308707 -1.1896741364462413 M 2.653327030616913 -1.7979400673244177 L 2.9418222620106924 -1.6870247685389221 L 2.9060770472362196 -1.5940500020233914 L 2.735623308624413 -1.659582895776591 L 2.6460850500471804 -1.4266902208283745 L 2.777799302610849 -1.3760511665645383 L 2.7420540878363764 -1.2830764000490076 L 2.610339835272708 -1.3337154543128436 L 2.5078351752576764 -1.0670966385697775 L 2.6828465004633815 -0.9998115284060646 L 2.6471012856889087 -0.9068367618905339 L 2.354048467701231 -1.019504277086543 L 2.653327030616913 -1.7979400673244177 M 3.131531065861591 -1.5973731870075076 L 3.2413135090916105 -1.5288840646897643 L 2.9695147046815613 -0.9197836847427758 L 2.974071711759034 -0.916940740042794 L 3.402051576915186 -1.428605651635861 L 3.511419746774526 -1.360374978836298 L 2.941148951441539 -0.7331738618700527 L 2.818524033720461 -0.8096749192513811 L 3.131531065861591 -1.5973731870075076" fill="#231f20" fill-rule="nonzero"></path></g><g><path d=" M -1.4210254284562174 1.2232576771241792 Q -1.4061643973328655 1.2238738128104065 -1.3981412810613727 1.2316497377719373 Q -1.39011816478988 1.2394256627334679 -1.3905195865248463 1.2491078496774701 Q -1.3909210082598125 1.2587900366214722 -1.398209257388137 1.265931155118405 Q -1.4054975065164614 1.273072273615338 -1.4198708618066072 1.2715741401545506 Q -1.510651677868875 1.2632993001590522 -1.5641943868154142 1.2164197010494215 Q -1.6155601074931094 1.1714347929375042 -1.6128901861861242 1.1070369914029787 Q -1.6078490760260824 0.9854467367573713 -1.4244390368428648 0.9574133233783118 Q -1.3567791062984322 0.9466852410615637 -1.2655864153142264 0.9504660736815951 Q -1.1743937243300209 0.9542469063016266 -1.1034825109695476 0.9684645815849852 Q -1.0325712976090746 0.9826822568683438 -0.9808343969595414 1.0078337860374211 Q -0.8702859426856255 1.0615879167647608 -0.8740387691381012 1.1521051063342687 Q -0.8769514105639031 1.222357253462842 -0.9337428349469138 1.2538358184581582 Q -0.9942116166551282 1.286966354332371 -1.1279608967652965 1.281421133156325 Q -1.1428219278886487 1.2808049974700977 -1.1499723817747667 1.2737419154800058 Q -1.1571228356608847 1.266678833489914 -1.1567307493151038 1.2572218136841444 Q -1.1558718935100596 1.2365064369667447 -1.1297525054750772 1.2375893421122353 Q -0.9631288231829483 1.2444975301093297 -0.9289519377061962 1.1926837107507418 Q -0.9169094081030038 1.174236440598466 -0.9158638445142544 1.149017721116414 Q -0.9148182809255049 1.1237990016343622 -0.9281729609966708 1.1031709968129886 Q -0.9415276410678366 1.0825429919916152 -0.9658770515578727 1.065970231254001 Q -0.990226462047909 1.049397470516387 -1.0237599304617695 1.036729469837782 Q -1.05729339887563 1.024061469159177 -1.096173748474175 1.0152317630174978 Q -1.1748351162241957 0.9975350091773986 -1.2520674446379798 0.9943329706868534 Q -1.3292997730517637 0.9911309321963083 -1.3761147492279893 0.9941521836760763 Q -1.4229297254042146 0.9971734351558442 -1.4564027102918182 1.004807818474915 Q -1.4898756951794219 1.0124422017939856 -1.5113296854402436 1.0239582032025494 Q -1.5327836757010656 1.0354742046111134 -1.5455588368518536 1.049831124718461 Q -1.5677701114344682 1.0741723176170983 -1.5693944691527038 1.1133513996695719 Q -1.5712055346546447 1.1570338244866976 -1.5367867150728656 1.1864295411188124 Q -1.4971692627355795 1.2210029841324908 -1.4210254284562174 1.2232576771241792 M -1.3789280747512784 1.5688496427675598 Q -1.4797585268149598 1.5865785770159413 -1.5539929838372026 1.5992261920979685 Q -1.5691077062740677 1.6017931367544167 -1.5775957088668036 1.5947873008830957 Q -1.5860837114595394 1.5877814650117748 -1.587362284160999 1.5786305714042101 Q -1.5886408568624584 1.5694796777966458 -1.5826886142261352 1.5615939837581154 Q -1.576736371589812 1.553708289719585 -1.5628984349149582 1.551774838317378 L -1.22721687428625 1.5048730494638394 Q -1.0531267032155105 1.4805489834360732 -0.9159323550683265 1.4527331533874797 Q -0.8964785208913284 1.4486497446222644 -0.8872060011709381 1.4596418612797977 Q -0.8833952423919621 1.4641155110736022 -0.8819772320100665 1.4693785776218258 Q -0.8805592216281708 1.4746416441700494 -0.8726454555769214 1.4921949985843241 Q -0.8532762408027897 1.5363639465470957 -0.8469457466955634 1.5816720295308908 Q -0.8406152525883371 1.6269801125146859 -0.8465113511992223 1.658068030109119 Q -0.8524074498101074 1.6891559477035523 -0.8700098004920279 1.7130050376461214 Q -0.9075185957796071 1.7637557442558522 -0.9927781410988668 1.7756682996694506 Q -1.102588864389641 1.7910111720869646 -1.2169107053757588 1.7186950642219259 Q -1.2353604037769848 1.7071647953497064 -1.253613194724468 1.6937866168613056 Q -1.381416509725752 1.7562431721773628 -1.512455885772946 1.8346252521312105 Q -1.5350638130887244 1.848706441031716 -1.5492171706428302 1.8288391934401742 Q -1.5526439137678498 1.8238567891922708 -1.5536418241689889 1.8167146283278304 Q -1.5558871225715518 1.8006447663828389 -1.538520876357491 1.7913918451695068 Q -1.4990028871352081 1.7713071692340046 -1.4624585694177048 1.7543685741232014 Q -1.4259142517002013 1.7374299790123982 -1.3913162973257507 1.721218431255943 Q -1.3288883330408627 1.6924715564683368 -1.2848966940247755 1.6685761217538586 Q -1.335056678273278 1.6255235976177353 -1.3789280747512784 1.5688496427675598 M -1.336708602818876 1.5615853945987135 Q -1.2857868126370937 1.6263762483285145 -1.2066509968909178 1.678123020573066 Q -1.0991398712618263 1.7472948345528534 -1.002720699591878 1.7338230441374751 Q -0.9027304474897097 1.7198522985215277 -0.8835074147890973 1.6457158340345766 Q -0.8728013212502289 1.6050814209856452 -0.8927024628644138 1.547333813201834 Q -0.9019883557172295 1.5199599875989533 -0.9134108328006281 1.5033519734392757 Q -1.0485835362638423 1.5163221571583474 -1.1396460872854601 1.5290455147728712 Q -1.2365116440094357 1.5425796745883205 -1.2438458127008545 1.543831962216509 Q -1.2511799813922733 1.5450842498446975 -1.2571749949216093 1.5461494292726725 Q -1.2631700084509454 1.5472146087006473 -1.2695802223342736 1.5485653500557073 Q -1.2759904362176018 1.549916091410767 -1.2879492785762383 1.5522696427937306 Q -1.299908120934875 1.5546231941766941 -1.3189779394579169 1.5581978484878107 Q -1.3269505010303413 1.5597668827431197 -1.336708602818876 1.5615853945987135 M -1.2381014597748181 2.074812323738759 L -1.3905501019288584 2.123414249797939 Q -1.4111992433741332 2.129869444637235 -1.425825718564536 2.1344418743150695 Q -1.4321440920403659 2.1368893131491262 -1.4368761869549078 2.1383686286331316 Q -1.4029864140486037 2.2467766212208238 -1.388382782731442 2.281406562496729 Q -1.3729455112900473 2.3171925918871445 -1.3727835079156923 2.323753191045291 Q -1.3726215045413372 2.3303137902034377 -1.3751483863041394 2.3358260437035714 Q -1.380202149829744 2.3468505507038384 -1.38945124443544 2.34974194005894 Q -1.398700339041136 2.352633329414041 -1.4079234722567273 2.346544200925476 Q -1.4171466054723187 2.3404550724369106 -1.4208586542566004 2.3255596307948703 Q -1.4373214274827666 2.253260115587872 -1.4587298320884314 2.1976180840328254 Q -1.4801382366940963 2.1419760524777787 -1.4833654444241364 2.1354292133939006 Q -1.4865926521541764 2.128882374310022 -1.4871982163599684 2.1231687856607686 Q -1.4878037805657602 2.1174551970115147 -1.4857070892497346 2.1120774267372 Q -1.4814869658483625 2.099896831622422 -1.4670217146530986 2.096319266063959 Q -1.3406794271473939 2.0639064705040124 -1.1898976755522106 2.0167700998545692 Q -1.0391159239570276 1.9696337292051265 -1.0001164469108397 1.9576780924919253 Q -0.961116969864652 1.945722455778724 -0.9288526863564103 1.935636213842324 Q -0.859860990877022 1.9131240335919655 -0.8319257422954742 1.9020299468411412 Q -0.8039904937139266 1.890935860090317 -0.7973893937121912 1.8924140065054986 Q -0.790788293710456 1.89389215292068 -0.7867278355457914 1.8978173484803103 Q -0.7816992540310754 1.9033288226012277 -0.7803269016243523 1.9137611357803632 Q -0.7776899392674042 1.9327705171257095 -0.7684105966859162 1.9624536579532919 Q -0.7505243276520334 2.019668987374574 -0.7416358437425569 2.0397935663012343 Q -0.7327473598330804 2.0599181452278943 -0.7328004516821136 2.06654598599895 Q -0.7328535435311467 2.073173826770006 -0.7350847180729913 2.0781214065975444 Q -0.7392781007050427 2.0888769471461743 -0.7491724809809035 2.0919700613400036 Q -0.7590668612567644 2.095063175533833 -0.7679404160231488 2.089336995879135 Q -0.7768139707895331 2.083610816224437 -0.780337665119747 2.0700731875356357 Q -0.7838613594499608 2.0565355588468344 -0.7874927962366728 2.0411426851451084 Q -0.7911242330233847 2.025749811443382 -0.7956431811625783 2.0082732271206827 Q -0.8056492007910168 1.9717337799139958 -0.8161381130256569 1.9457343883429425 Q -0.8535646818952174 1.9574344289891668 -0.8906955435438199 1.9685697959627955 Q -0.9347094523408473 1.981856894549523 -0.9800139324782046 1.9955474428137066 Q -1.1017310881466496 2.032181141154241 -1.159376608014708 2.0502018934139428 Q -1.1425662047873746 2.1039756992610124 -1.132050551783414 2.128550036265917 Q -1.1204322922035834 2.155140842278886 -1.1238057947856706 2.163987266586342 Q -1.127179297367758 2.172833690893798 -1.136643487196842 2.1757923218618087 Q -1.1603039617695527 2.183188899281835 -1.1732953531353223 2.1386103168122124 Q -1.1756893104307378 2.129441834204086 -1.177975525269655 2.1221285966088845 L -1.1884384761141906 2.0871486871941647 L -1.1963729864374921 2.061767450834348 L -1.2381014597748181 2.074812323738759 M -0.6625779014347639 1.9860367589832864 Q -0.6486218939254145 1.9982020352653644 -0.6270026806820488 2.0122217771811517 Q -0.6053834674386831 2.026241519096939 -0.6037150181213942 2.0398868902422382 Q -0.6020465688041052 2.0535322613875375 -0.6090365790298125 2.0613842112652296 Q -0.6228821162554079 2.07751830146739 -0.645227616856116 2.060419984811258 Q -0.6554994854193282 2.053242009821091 -0.6795397864170378 2.0277011082245666 Q -0.7035800874147475 2.0021602066280426 -0.7148739505562599 1.9924683305701256 Q -0.7261678136977724 1.9827764545122086 -0.7306989631528024 1.9773455923888605 Q -0.7352301126078324 1.9719147302655124 -0.7364947225580574 1.963337662099302 Q -0.7388894592326888 1.9466137162136572 -0.7227301870196394 1.943923272318068 Q -0.7150134997469819 1.9429276288194803 -0.7065701354273741 1.948788291699997 Q -0.6981267711077663 1.9546489545805137 -0.6873303400259397 1.9642602186408609 Q -0.6765339089441132 1.9738714827012083 -0.6625779014347639 1.9860367589832864 M -0.6059238649137964 2.3643464735654645 Q -0.6010366969629684 2.373996848435409 -0.6050060360622322 2.3861114674527197 Q -0.608975375161496 2.39822608647003 -0.6321668906951196 2.4157808562984444 Q -0.655358406228743 2.4333356261268584 -0.698020730720785 2.4668135272785836 Q -0.7406830552128271 2.500291428430309 -0.7886589869627674 2.5392389857902815 Q -0.8366349187127078 2.578186543150254 -0.8874177955685667 2.6200712693515547 Q -0.9382006724244256 2.6619559955528556 -0.9855657081805125 2.7021098497715714 Q -1.0961451155533817 2.7970119165026435 -1.1456932878140638 2.84382881118088 Q -1.1585346290923833 2.8553841846342167 -1.1705371020247424 2.85363155481897 Q -1.1825395749571013 2.851878925003723 -1.1864085829181734 2.84423904489835 Q -1.1902775908792456 2.836599164792977 -1.1890107983654308 2.828126679045342 Q -1.187744005851616 2.8196541932977066 -1.1684742463696545 2.803832877973371 Q -1.149204486887693 2.788011562649036 -1.1060485775297368 2.752515419168257 Q -1.062892668171781 2.7170192756874783 -1.013313505653171 2.676249360431921 Q -1.0111045439336361 2.6746254694912994 -1.0092976811670153 2.6732052105486295 Q -1.0219383601689516 2.6452515857565992 -1.0471887279148964 2.5953913155952186 Q -1.0769189996157666 2.536684868469722 -1.0942070592696638 2.506537777087121 Q -1.0968232849851012 2.5073574701219137 -1.0994395107005386 2.5081771631567062 Q -1.2300781547323814 2.5435169344265733 -1.3007214140921772 2.564640816462195 Q -1.3232647806703213 2.5710050588285607 -1.3320209565822214 2.5537148038532433 Q -1.3411843964900239 2.535620350972097 -1.3255283625413037 2.5226395535331023 Q -1.3209119721472704 2.5187860407009937 -1.3078205134841079 2.5167032353345906 Q -1.2947290548209454 2.514620429968187 -1.2636217165821664 2.5077083697845333 Q -1.2325143783433872 2.50079630960088 -1.1927541650524676 2.4910179063169458 Q -1.1529939517615477 2.481239503033012 -1.1060900257526631 2.4691064191651697 Q -1.0591860997437785 2.4569733352973278 -1.0096659480194567 2.444020558394693 Q -0.9601457962951347 2.431067781492058 -0.9100224961414413 2.4178095565924966 Q -0.8598991959877478 2.404551331692935 -0.8131989019768143 2.3920161488721785 Q -0.766498607965881 2.3794809660514216 -0.7255346803377121 2.3685877518217446 Q -0.6845707527095433 2.3576945375920673 -0.6604138252767539 2.3515235971376764 Q -0.6183454167888175 2.3398184374376885 -0.6059238649137964 2.3643464735654645 M -1.0529428486875563 2.4952398813830357 Q -1.0390752126549252 2.5266139297963317 -1.0128066849192245 2.578484694722284 Q -0.9910180611384498 2.6215092826841206 -0.976779316410832 2.646632719676786 Q -0.9444645836525998 2.619658129852028 -0.9101393561297958 2.5916653800375147 Q -0.8569464680779446 2.548054946896617 -0.8067615746084693 2.507483498596023 Q -0.7248625142886393 2.440746823419488 -0.662630147360697 2.3910429254690193 Q -0.7135550628987252 2.405212329316373 -0.8019268314876686 2.4282412099353863 Q -0.9194843469423248 2.45948251603129 -0.9808793303850903 2.475922862114035 Q -1.017715287442152 2.4859886357444374 -1.0529428486875563 2.4952398813830357 M -0.4047520842463691 2.6993052020364074 Q -0.3972821908016092 2.7094772198208528 -0.3058043063039009 2.827954032566486 Q -0.2935323385017954 2.8446652046409318 -0.30171206828374775 2.860178439387438 Q -0.3042778041432267 2.86429940387263 -0.30900052668600486 2.8677675686862685 Q -0.31372324922878303 2.871235733499907 -0.3226293435774048 2.869387994026249 Q -0.33153543792602647 2.867540254552591 -0.3421102098349804 2.8523787323166263 Q -0.35268498174393437 2.8372172100806616 -0.3622295125315902 2.8226971218095667 Q -0.371774043319246 2.8081770335384717 -0.38021455995826847 2.7959218020980625 Q -0.3952281198751235 2.773954343663356 -0.40679624639170786 2.7589630988954292 Q -0.49248636203386775 2.817416647110401 -0.5902103900344308 2.889180980561844 Q -0.6948368586744388 2.9660141702793736 -0.7333934639359043 2.9946080867350577 Q -0.77195006919737 3.0232020031907414 -0.8066552812760008 3.0498064210375486 Q -0.8959499502120057 3.117058193453755 -0.9387439664191182 3.150161881551059 Q -0.9508289203914888 3.159595752797712 -0.9612250466515561 3.1580034295261115 Q -0.9716211729116233 3.1564111062545113 -0.9768234201320811 3.1493270224403442 Q -0.9820256673525388 3.1422429386261768 -0.9813301942478658 3.131387021575962 Q -0.9806347211431928 3.1205311045257473 -0.9693728443104143 3.1122608653547634 L -0.9220491144419298 3.076949148960192 L -0.5724428316350446 2.8258052896065777 Q -0.4754453763333705 2.7545745199726177 -0.43480834680955727 2.72081803220376 Q -0.44858450162340824 2.7012970737744615 -0.46987601270875445 2.676111079808722 Q -0.4949989749571837 2.646469145208946 -0.5061782943173396 2.633149575527187 Q -0.5173576136774957 2.6198300058454285 -0.5161768289756914 2.6100156956231957 Q -0.514996044273887 2.600201385400963 -0.5079119604597199 2.594999138180505 Q -0.5008278766455526 2.5897968909600473 -0.48965692546624484 2.5905406162850717 Q -0.4784859742869372 2.5912843416100966 -0.4695601460507832 2.6045811798784873 Q -0.4606343178146295 2.617878018146878 -0.454061274536797 2.627590245141176 Q -0.4474882312589644 2.6373024721354734 -0.4426492703879512 2.644653337858382 Q -0.4378103095169378 2.6520042035812907 -0.4341718672352609 2.6577202807316995 Q -0.43053342495358415 2.663436357882108 -0.42657994854281434 2.669200687252868 Q -0.4226264721320445 2.674965016623628 -0.417290833957216 2.6822307436125175 L -0.4047520842463691 2.6993052020364074 M -0.5301417125123178 3.300278109433175 L -0.6430789722149088 3.4136267357245518 Q -0.6584352185824602 3.4288662331027235 -0.6693125597594757 3.4396608770789285 Q -0.6737938972206235 3.444743141808931 -0.6773130370131875 3.4482355266247624 Q -0.5973056757777857 3.5288558200544067 -0.5683946705001052 3.5528694131686023 Q -0.538211274836965 3.577525282152058 -0.5350461086322941 3.583274145457441 Q -0.5318809424276232 3.5890230087628248 -0.53158534333442 3.5950796325144716 Q -0.5309941451480136 3.6071928800177657 -0.5378724638334792 3.614018904885072 Q -0.5447507825189449 3.620844929752378 -0.555741871453993 3.619687503260257 Q -0.5667329603890411 3.6185300767681357 -0.5768877607665981 3.6070177565336965 Q -0.6247970600841398 3.550423217571308 -0.669425013168366 3.510892201054593 Q -0.7140529662525923 3.4713611845378782 -0.7199326032102928 3.4670361595704744 Q -0.7258122401679934 3.46271113460307 -0.7289810547785822 3.4579183882897406 Q -0.7321498693891711 3.453125641976411 -0.7327653902816984 3.447386507753476 Q -0.7346289788535646 3.434630984380922 -0.7234365804184493 3.4247936735320765 Q -0.6262168374831387 3.337838026724194 -0.5140842468200817 3.226557946910669 Q -0.4019516561570247 3.115277867097144 -0.3728399885538481 3.086705025648378 Q -0.3437283209506714 3.058132184199612 -0.3197341860013725 3.0343204695462185 Q -0.26886175536763457 2.982564811824953 -0.24917440335614915 2.9598521491689906 Q -0.22948705134466363 2.9371394865130287 -0.2229468964881125 2.935411536134704 Q -0.21640674163156126 2.9336835857563788 -0.21099482601978636 2.9352977883766713 Q -0.20399303049383977 2.9378741886655475 -0.19797045853076178 2.946502348164847 Q -0.1868753509201294 2.962161490437438 -0.1649685734390075 2.9842360945907926 Q -0.12274246612032336 3.026785693900883 -0.10558465408151352 3.0405557087601807 Q -0.0884268420427039 3.0543257236194785 -0.0854216367376952 3.0602333316892176 Q -0.08241643143268629 3.066140939758957 -0.08211840006887106 3.0715601521825686 Q -0.08088735828381655 3.083038420628439 -0.0882455596682683 3.0903406797888127 Q -0.09560376105271984 3.0976429389491864 -0.10611739955939403 3.0966466894920335 Q -0.11663103806606823 3.0956504400348805 -0.12599333075715158 3.0852566299627693 Q -0.13535562344823482 3.0748628198906576 -0.14566795245484176 3.0628718330925384 Q -0.1559802814614487 3.050880846294419 -0.1680400190112772 3.037448995264036 Q -0.19374937402510584 3.0096230955346854 -0.2150333338018643 2.9913753916201578 Q -0.24286653034305106 3.018996980618094 -0.2706972946136257 3.0459811582879945 Q -0.30364680767338414 3.0780451684172854 -0.33755608613111454 3.111061647132712 Q -0.42872650212661434 3.199633928831499 -0.4715960232360284 3.2421775256788954 Q -0.43190983214703943 3.2821677505943936 -0.4112584191570927 3.2991381995822375 Q -0.3886996367242625 3.317390768037989 -0.3876200428917278 3.3267968416000895 Q -0.38654044905919305 3.33620291516219 -0.39357872864432075 3.343187684793852 Q -0.41117442760713996 3.3606496088730076 -0.44323600546581887 3.327062684485213 Q -0.449583363769445 3.3200268371706976 -0.4549806857575475 3.31458816658219 L -0.4803774157838884 3.2883570113082348 L -0.49910929797789116 3.26948162514812 L -0.5301417125123178 3.300278109433175 M -0.22636091360822536 3.5993654147724863 L -0.11595701431816907 3.4439268771539178 Q -0.022623811181774978 3.3111974682911347 0.03371097876337642 3.213061313047154 Q 0.04090118507942159 3.200485366677659 0.051924861237774345 3.1996965472949324 Q 0.06294853739612705 3.1989077279122053 0.0719815110548443 3.2052595709034324 Q 0.08101448471356143 3.211611413894659 0.08436982784867697 3.2225113302838286 Q 0.0877251709837924 3.233411246672998 0.07337669325494167 3.2522491010036187 Q 0.059028215526091 3.2710869553342388 0.037236142263211314 3.300118578683164 Q 0.015444069000331628 3.329150202032089 -0.008626617388560132 3.361814036452583 Q -0.05676799016634371 3.4271417052935704 -0.09461978921610348 3.480970854443477 Q -0.1324715882658633 3.5348000035933835 -0.14615759288632357 3.554654697970403 Q -0.15984359750678384 3.574509392347423 -0.17243784958444192 3.593203291364855 Q -0.23955725233435005 3.6925718712903617 -0.24874731400411226 3.725230532700549 Q -0.2579373756738744 3.7578891941107364 -0.2556223513036276 3.780455064222644 Q -0.2509923025631338 3.8255868044464596 -0.2126482511138853 3.8525497297969733 Q -0.17319812125744694 3.8802904318402907 -0.12690817217919698 3.869311823283034 Q -0.07910306080335056 3.8577456541137902 -0.03656768922723019 3.8066589189327 Q 0.014154533167329675 3.74314606237492 0.042413753005848986 3.7029585469136888 Q 0.0706729728443683 3.662771031452457 0.09109970880245699 3.633330324213125 Q 0.11152644476054574 3.6038896169737935 0.13645569001826097 3.5668705117413255 Q 0.20817271010820315 3.45861291347029 0.2645934552396809 3.3721081905406556 Q 0.2725210471605193 3.360050761966362 0.28304640106767487 3.3591870300872326 Q 0.29357175497483046 3.358323298208103 0.30205168942995275 3.3642862528529287 Q 0.31053162388507505 3.3702492074977535 0.31364790366659445 3.380705518588124 Q 0.31676418344811386 3.3911618296784938 0.3080992059224821 3.4027007404575844 Q 0.2679948589703325 3.4565989324242765 0.2302179724169755 3.509929759322986 Q 0.19244108586361852 3.5632605862216957 0.15499837070426525 3.6157243980668112 Q 0.06429814763189223 3.743142282703236 0.020964803818963484 3.796147394392712 Q -0.022368539993965153 3.8491525060821883 -0.05062706316317345 3.8717085266707034 Q -0.07888558633238163 3.8942645472592186 -0.1099262178891054 3.90549724170377 Q -0.1793240335929344 3.930531740850414 -0.23794618917399707 3.88930957613184 Q -0.33491239620430824 3.821124486062752 -0.28343308915817 3.696983052221264 Q -0.2675830783267994 3.6579875703535487 -0.23854608179547682 3.616693976485127 L -0.22636091360822536 3.5993654147724863 M 0.3106428201734524 3.959583035063787 Q 0.2720591572819258 4.0544112804911006 0.24330967769358183 4.124011454341815 Q 0.23744910260502014 4.138178235869179 0.22700302268882527 4.141643396565979 Q 0.21655694277263038 4.1451085572627795 0.2081264285675678 4.141327018923939 Q 0.19969591436250522 4.137545480585099 0.19618083504902026 4.128311977442148 Q 0.1926657557355353 4.119078474299196 0.1983841795650014 4.10632989184276 L 0.3371020737507605 3.7970739561253426 Q 0.409043534831141 3.6366885639314694 0.45841412581379304 3.5056978989555 Q 0.4652968645598318 3.4870497409048036 0.47953637847675756 3.4850391454737126 Q 0.485351326019566 3.4841895514391665 0.49056295909122505 3.485786267963971 Q 0.49577459216288416 3.4873829844887756 0.5148492039908672 3.4900111260220297 Q 0.5625568905736877 3.4970849570929445 0.6042982170036317 3.5158081835023256 Q 0.6460395434335757 3.5345314099117067 0.6692368401171245 3.556051354748136 Q 0.6924341368006733 3.5775712995845654 0.7032772296812235 3.605158419358145 Q 0.7263240913056082 3.6639069181864468 0.691091221904704 3.742454635901908 Q 0.6457127618386178 3.843620806362659 0.5236887601129293 3.90200955344677 Q 0.504114962118098 3.911507179645953 0.4830806510266128 3.9198557001104817 Q 0.46804303592631913 4.061306676633659 0.46477415365071045 4.213964407985195 Q 0.4646828985592039 4.240598782970832 0.44033152586095914 4.242025564183622 Q 0.4342897990076034 4.242279448337978 0.42770988548170086 4.239328003780834 Q 0.41290508004842025 4.232687253527261 0.41429948779556763 4.213059245844813 Q 0.418294932232161 4.168910609361217 0.4233743546048067 4.1289530990518175 Q 0.42845377697745235 4.088995588742417 0.43311435016377026 4.051073144396998 Q 0.44195151955147566 3.9829149609409926 0.4450973699535231 3.932951376914588 Q 0.38196733183525905 3.9525509213350083 0.3106428201734524 3.959583035063787 M 0.32693328844538705 3.919961402649276 Q 0.40888074071725117 3.9112724148771316 0.4947780098799554 3.87175197811421 Q 0.610518296259823 3.8174604678018706 0.6503627977812645 3.728631635202187 Q 0.6916830215812778 3.6365128458395515 0.6391078636217562 3.580820897423599 Q 0.6103815786736039 3.5501520774956705 0.5508899500841806 3.536310554094004 Q 0.5227679571580817 3.529624176294677 0.5026288676468957 3.530470456809196 Q 0.44175863717583197 3.651857031312557 0.40412771907224837 3.735750928767814 Q 0.3640987522659854 3.824991005962867 0.3612606973641153 3.8318687744288646 Q 0.3584226424622452 3.8387465428948624 0.3561379834148396 3.844390577574753 Q 0.35385332436743394 3.8500346122546443 0.35158982233289127 3.8561821241723147 Q 0.3493263202983486 3.8623296360899855 0.3449626245012218 3.873709938092178 Q 0.3405989287040949 3.885090240094371 0.33348941064750875 3.903142688264877 Q 0.33058028011609086 3.9107295562663387 0.32693328844538705 3.919961402649276 M 1.359984078787278 3.901224698034113 Q 1.3653020515932894 3.957823481963106 1.3545244969352137 4.02342543999973 Q 1.343746942277138 4.089027398036352 1.3233848431912931 4.143462712105375 Q 1.3030227441054478 4.197898026174399 1.275153759445169 4.242421555186762 Q 1.2472847747848896 4.286945084199125 1.2131669384783643 4.320849980497689 Q 1.179049102171839 4.354754876796253 1.1407902571214936 4.376331997380797 Q 1.0617564991644268 4.420899933864164 0.9799208362577242 4.407455391104259 Q 0.9670228241691677 4.405336414256231 0.9645941334428159 4.396487292640833 Q 0.9621654427164641 4.3876381710254355 0.9640652150629724 4.376074436049488 L 0.9703490774398842 4.337825158821356 Q 0.9748793038046347 4.310250098494097 0.9811234570807119 4.270852389588536 Q 0.987367610356789 4.231454680682976 0.9950731269763341 4.183161791026687 Q 1.0027786435958792 4.134868901370398 1.0106239465152749 4.082944871246644 Q 1.0184692494346708 4.03102084112289 1.0264606886884133 3.978207292924063 Q 1.034452127942156 3.9253937447252367 1.0414539719218097 3.8772136323369555 Q 1.0551526871434314 3.7771491989257555 1.0610204084085078 3.7191907377461693 Q 1.0637652485886164 3.6885817823578253 1.0932591313658713 3.6897731409238044 Q 1.136978953309796 3.6905610584469404 1.1645540136370545 3.695091284811691 Q 1.3433471467266982 3.724464688015395 1.359984078787278 3.901224698034113 M 1.0108062319989903 4.369593722603199 Q 1.0613562759093003 4.376071389343646 1.1179646276605057 4.3428924335761785 Q 1.2231153003890798 4.281147298854442 1.279310814357104 4.133709720681586 Q 1.2986070749844387 4.082981790264449 1.3095307659768611 4.016490314152753 Q 1.3204544569692835 3.949998838041057 1.312294784571864 3.898185976291453 Q 1.3041351121744444 3.8463731145418487 1.2831615870307758 3.8127810643683877 Q 1.243743304668806 3.7496665134919707 1.1672447502125405 3.737098788738147 Q 1.1338878223973086 3.731618676200142 1.111815056958322 3.735300616943576 Q 1.100730963439171 3.7805262524724403 1.0871402843449198 3.863251433454216 Q 1.0708460830652529 3.962432698824839 1.0626687983763288 4.0149873334213115 Q 1.0544915136874047 4.067541968017783 1.0469019493531158 4.11790934151016 Q 1.0393123850188268 4.168276715002536 1.0324169682726851 4.214418877638316 Q 1.0255215515265435 4.260561040274096 1.020419479893398 4.29717741768643 Q 1.0142277357871476 4.343206803054202 1.0108062319989903 4.369593722603199 M 1.5939840828230807 4.221993927303669 L 1.5960434550659455 4.381989223163385 Q 1.5962000234320823 4.403623272002817 1.5963109260247628 4.418947389930748 Q 1.5968105629900022 4.4257047683521105 1.5968464432405751 4.430662571211147 Q 1.7104251996475972 4.429840587288927 1.7478079810380935 4.425964179682577 Q 1.7865396286400932 4.421627277202521 1.7928626069154392 4.42338444883235 Q 1.7991855851907852 4.42514162046218 1.803722035267651 4.429165386209962 Q 1.8127949354213826 4.4372129177055255 1.8128650650020481 4.446903168748188 Q 1.8129351945827137 4.456593419790851 1.8044222754520034 4.463641389706846 Q 1.795909356321293 4.470689359622843 1.7805787147114391 4.46989884351388 Q 1.706619977244215 4.464574563870835 1.647154068583945 4.4688361563596946 Q 1.587688159923675 4.473097748848555 1.5804849649129338 4.474276711680988 Q 1.5732817699021924 4.47545567451342 1.5676397484145206 4.474369674148381 Q 1.5619977269268486 4.473283673783342 1.557464538690944 4.469710617386382 Q 1.547042772325709 4.462123580764524 1.5478365502756328 4.447243648505491 Q 1.5536545185001722 4.316939718503655 1.552511243243276 4.158966091040714 Q 1.5513679679863797 4.000992463577773 1.5512981260548029 3.9602016364079446 Q 1.551228284123226 3.919410809238117 1.550983646051137 3.885607607926503 Q 1.5495570709547428 3.813049926126162 1.5470866117767161 3.783094063501337 Q 1.5446161525986897 3.7531382008765117 1.5479540687973556 3.747254515508623 Q 1.5512919849960216 3.7413708301407347 1.5562302168092912 3.7386306937852325 Q 1.5629680241848856 3.735426800715064 1.573347386617625 3.7371546157762427 Q 1.592300012238857 3.7401725839116233 1.6233989574455416 3.7399475168853016 Q 1.6833433011048033 3.7395136920374634 1.7051847644943603 3.7368765913213275 Q 1.7270262278839172 3.7342394906051917 1.733350837079744 3.736222016910432 Q 1.7396754462755704 3.738204543215672 1.7437579251606534 3.7417808614535937 Q 1.752824301632463 3.748926974247514 1.75289932397457 3.759293289316409 Q 1.7529743463166776 3.769659604385304 1.744910505616308 3.776478957784928 Q 1.7368466649159386 3.783298311184552 1.7228697822790298 3.782723364228117 Q 1.7088928996421209 3.782148417271681 1.693109917760965 3.781135808328269 Q 1.6773269358798089 3.7801231993848567 1.659292038165026 3.7793522543216613 Q 1.621422667173135 3.7782741209099364 1.593494996627007 3.7807299018036375 Q 1.5937787767906304 3.8199416153251096 1.5936085857624709 3.858705881336721 Q 1.5934905841896907 3.904681496961477 1.5933823681397938 3.9520092406386973 Q 1.5929500792383842 4.079119063093248 1.5933871659271834 4.1395141161033315 Q 1.649725834779873 4.139106385983183 1.6762981154325751 4.136209681261544 Q 1.7051206809984238 4.132845957984277 1.7125997892194742 4.138651359169097 Q 1.7200788974405248 4.1444567603539175 1.7201506579416708 4.154372366071991 Q 1.720330059194536 4.179161380367174 1.6739004723779978 4.1785959312845335 Q 1.6644323141697848 4.178213720593897 1.656770255205819 4.178269171890237 L 1.620259535948315 4.178082671657272 L 1.5936676842498456 4.178275120273982 L 1.5939840828230807 4.221993927303669 M 2.2181867868664287 4.207020928456038 Q 2.2335075104266697 4.2032614552505105 2.24034729010071 4.214113577458418 Q 2.2471870697747502 4.224965699666326 2.253846708024542 4.252105267115895 Q 2.260506346274333 4.279244834565465 2.27374817066355 4.301056492501438 Q 2.286989995052766 4.32286815043741 2.30409634406453 4.335841938310641 Q 2.3387467770469224 4.361682100536946 2.3860221526042373 4.350081440359889 Q 2.4332975281615523 4.338480780182834 2.452773190676295 4.296806385663036 Q 2.4722488531910374 4.255131991143239 2.456244238687506 4.1899094822724985 Q 2.434868948176079 4.102800225458558 2.3442426445035798 4.053104191741323 Q 2.3185051715911573 4.038999702518886 2.291780774801733 4.025601482055708 Q 2.265056378012309 4.01220326159253 2.2391040780595715 3.997223302452366 Q 2.2131517781068335 3.9822433433122013 2.1905026925411564 3.961811899381817 Q 2.1409588279760174 3.91688582161465 2.124094905311223 3.848161433072997 Q 2.1068013285657967 3.7776861046958894 2.1377522111622445 3.7241460593533473 Q 2.168372772319986 3.671151162489828 2.2305311364786777 3.655898442627402 Q 2.283934801460089 3.642793993168135 2.326886036904433 3.670310005222667 Q 2.3750658492204484 3.702112115102146 2.389832348854616 3.7755280129146795 Q 2.3902539220570156 3.77913730610575 2.391439511217869 3.783023213975447 Q 2.392625100378722 3.7869091218451443 2.3942161009855103 3.79812102961714 Q 2.3958071015922986 3.8093329373891356 2.3898035684963936 3.8198559192099055 Q 2.3838000354004887 3.8303789010306755 2.374388733784912 3.832688291714071 Q 2.3649774321693355 3.8349976823974665 2.3563168441432953 3.8280730535019867 Q 2.3476562561172556 3.8211484246065073 2.346407698266522 3.8066038383220686 Q 2.3442570657602255 3.773252810562942 2.3402290587543035 3.7568377496055407 Q 2.336201051748381 3.74042268864814 2.3266395701183473 3.726989782568895 Q 2.3170780884883135 3.7135568764896503 2.3033419629926066 3.7048611055631335 Q 2.2737965316052633 3.68658601291414 2.236151325142957 3.695823575647722 Q 2.1945665040508744 3.7060278600627248 2.175284285329298 3.7409254435983623 Q 2.1541275514956433 3.7795316529669956 2.1654059711122255 3.825493823647718 Q 2.176684390728808 3.871455994328441 2.1936804668328667 3.8972193882115382 Q 2.2106765429369255 3.9229827820946355 2.2326771069425386 3.941716992949643 Q 2.2546776709481517 3.96045120380465 2.280307730340416 3.9741179580682227 Q 2.3059377897326803 3.9877847123317953 2.3321170380430822 4.000852611356267 Q 2.3582962863534846 4.013920510380739 2.3840874660259854 4.028243867082607 Q 2.4098786456984866 4.042567223784476 2.432312904223848 4.062123197797132 Q 2.481749355268829 4.106611540605436 2.4988281049739394 4.176211399064816 Q 2.5188070197233134 4.2576301014135245 2.488707364409897 4.316530379782592 Q 2.4589380305351867 4.374885509672638 2.389338172075806 4.391964259377749 Q 2.32455339816393 4.407861460361122 2.271598905691572 4.36794913242531 Q 2.22158498265464 4.330563881600757 2.2071915709534773 4.271907397112978 Q 2.192798159252315 4.213250912625198 2.2181867868664287 4.207020928456038 M 2.9585047669631948 4.1936991246272015 Q 2.8727058196793758 4.232587638495606 2.7920784737318556 4.1622428825278215 Q 2.711451127784336 4.091898126560037 2.63292982227014 3.9186581468769193 Q 2.570968697302777 3.781954561013227 2.5753059073927864 3.6681509047774714 Q 2.5778274601313957 3.6125736752183766 2.5984816138363 3.5707989759046805 Q 2.6191357675412044 3.529024276590984 2.662035241183114 3.5095800196567817 Q 2.7049347148250233 3.490135762722579 2.74709615929376 3.497995755761969 Q 2.7892576037624965 3.505855748801359 2.8293593417525464 3.5386498988632957 Q 2.9079974973975213 3.6029682527603812 2.980641345472985 3.761057327515488 Q 3.057006582435378 3.9273568278479942 3.050616765951019 4.042090831305481 Q 3.0443037142470137 4.154810610758796 2.9585047669631948 4.1936991246272015 M 2.7276189170934693 3.537999874101105 Q 2.702835368378362 3.534634760258724 2.679435655482775 3.545240718586471 Q 2.656035942587188 3.555846676914218 2.64264101236739 3.576516249080817 Q 2.6292460821475925 3.5971858212474164 2.6235271452959843 3.625510531911645 Q 2.6178082084443757 3.6538352425758736 2.619226247823006 3.6880799719000783 Q 2.6206442872016362 3.722324701224283 2.6275054866162986 3.7592983136996776 Q 2.6423826845018787 3.8347015543215996 2.673177177541214 3.902642825974576 Q 2.703971670580549 3.9705840976275524 2.7299429643332243 4.014236612806656 Q 2.755914258085899 4.05788912798576 2.7801103859352727 4.087253084438039 Q 2.804306513784646 4.1166170408903175 2.82696819750706 4.133315332536164 Q 2.849629881229474 4.15001362418201 2.870138417653355 4.157048395832593 Q 2.907800397996341 4.169174637403401 2.944747313094636 4.152428387412222 Q 3.0539459732740424 4.10293391521607 2.986357727884222 3.891583051520919 Q 2.970854726742731 3.8431857655109813 2.949270671198544 3.7955652971620673 Q 2.9276866156543577 3.7479448288131536 2.908624925044128 3.713531963661893 Q 2.889563234433899 3.6791190985106326 2.8682215643415265 3.648956211948972 Q 2.846879894249154 3.618793325387311 2.82379726181259 3.5946155372529023 Q 2.8007146293760257 3.5704377491184935 2.7765585475923014 3.5559013685309897 Q 2.7524024658085766 3.541364987943486 2.7276189170934693 3.537999874101105 M 2.9756934375778985 3.34340521323153 Q 2.998374783872711 3.327865713962759 3.020537676272433 3.3602145193340487 Q 3.050597691251367 3.404089910527292 3.0832842918273076 3.4529952374187043 Q 3.1159708924032485 3.5019005643101164 3.1426021313572634 3.5415687972038685 Q 3.169233370311278 3.58123703009762 3.2047807154031123 3.633919150209707 Q 3.2786776103729522 3.7433734692739287 3.386455708666506 3.902280559767823 Q 3.461467936695075 3.8530734291234596 3.5249265495657762 3.7997620750334318 Q 3.5372932785745985 3.7891039216095797 3.549569957459892 3.79107368544935 Q 3.561846636345185 3.793043449289121 3.567196300027877 3.8008517816201217 Q 3.572545963710568 3.808660113951123 3.569801668716459 3.819008832875835 Q 3.5670573737223497 3.829357551800548 3.553533994724711 3.8375300072401766 Q 3.5088531919209807 3.863224610518645 3.461231887963211 3.898582821753357 Q 3.413610584005441 3.933941032988069 3.4045902831384764 3.9423064734050537 Q 3.3955699822715117 3.9506719138220383 3.390285300683691 3.95292667406995 Q 3.38500061909587 3.9551814343178617 3.3792443984877014 3.954754290421619 Q 3.3667335606835214 3.954037669059343 3.3590705970231967 3.9412579407598947 Q 3.303921963033776 3.8511938583957748 3.2077553896901527 3.7108297891123057 Q 3.1115888163465297 3.570465719828837 3.0886031465481296 3.5373147240296348 Q 3.0656174767497295 3.5041637282304334 3.0457678843276406 3.476786318827591 Q 3.006323445373114 3.422403325371002 2.9711749549662896 3.381467805394139 Q 2.9619076104501403 3.370333631892046 2.9645245324994236 3.359799000292786 Q 2.967141454548707 3.3492643686935253 2.9756934375778985 3.34340521323153 M 3.6188555794200448 3.4844745665771497 L 3.4857663013850195 3.34795568866071 Q 3.37195203095266 3.2323075385211033 3.285525711337935 3.1592677904239994 Q 3.2744451527150065 3.1499364071096374 3.2756484684398703 3.1389502474835855 Q 3.2768517841647338 3.127964087857533 3.2847222832714573 3.120218394453109 Q 3.2925927823781804 3.1124727010486843 3.303918016251774 3.1111289813778975 Q 3.3152432501253677 3.1097852617071107 3.3311986748404223 3.127282918438205 Q 3.347154099555477 3.1447805751692997 3.37180112287341 3.1714311633979646 Q 3.3964481461913434 3.1980817516266287 3.424259224076436 3.2276260906639327 Q 3.4798813798466197 3.28671476873854 3.5260393895219657 3.3336165185173803 Q 3.5721973991973117 3.3805182682962207 3.5892720868173145 3.397546793010812 Q 3.606346774437317 3.414575317725403 3.6224755568588662 3.4303214100491473 Q 3.7081778809858266 3.5141917894518517 3.7386557058585703 3.5290964058382492 Q 3.769133530731314 3.5440010222246463 3.791748339706416 3.545775352171972 Q 3.83697795765662 3.5493240120666227 3.870387423252506 3.516444333941719 Q 3.904760623432889 3.482616203563212 3.9022718543929336 3.4351073069207283 Q 3.8994771228223732 3.386002374191346 3.856857900733813 3.334985570536595 Q 3.803484458994121 3.2736838372035804 3.769024027113212 3.2386681473001997 Q 3.734563595232303 3.2036524573968186 3.7092689880810745 3.178271566283256 Q 3.6839743809298455 3.1528906751696937 3.6520329668379485 3.1217197353837034 Q 3.55841159160007 3.031730421281626 3.4834431106830497 2.9606945540079845 Q 3.473005041783119 2.9507308691912204 3.474045188022084 2.940221482747119 Q 3.4750853342610495 2.9297120963030174 3.482473966075524 2.9224406290253944 Q 3.4898625978899993 2.9151691617477713 3.5007085115264935 2.9139809703974358 Q 3.5115544251629878 2.9127927790471007 3.521350004339921 2.9233887653662665 Q 3.567171486822874 2.9725188527344075 3.6128527233162693 3.0192574330273496 Q 3.658533959809665 3.0659960133202917 3.7034222723699086 3.1122501792658364 Q 3.8124840933136577 3.224354447708359 3.856847238644121 3.2765007024886548 Q 3.9012103839745844 3.3286469572689503 3.9183259824333363 3.3604962035063886 Q 3.9354415808920877 3.3923454497438272 3.9409183417811935 3.4248984729842036 Q 3.9530855254612303 3.497663455037951 3.902007592482904 3.54793142447891 Q 3.8175201939086914 3.6310790720447725 3.7046394093117714 3.5581466161766557 Q 3.6691235488610037 3.535552499555476 3.6337146647264915 3.499573075067598 L 3.6188555794200448 3.4844745665771497 M 3.653847547268574 2.7071103977506557 Q 3.661161600992588 2.69682575521893 3.7449469115682614 2.5727895498501834 Q 3.7569628569719984 2.5558933514052065 3.7742593356119496 2.558791671308819 Q 3.778977287048139 2.5599345987057207 3.7837522996521544 2.5633304093632985 Q 3.7885273122561696 2.5667262200208762 3.7895677361246727 2.5757622687083788 Q 3.7906081599931754 2.5847983173958813 3.7795309869497364 2.599596756327193 Q 3.7684538139062966 2.6143951952585045 3.757662372712083 2.6280141463307682 Q 3.746870931517869 2.6416330974030324 3.7378834881098624 2.6534930670395656 Q 3.7217371147248524 2.6746418456797 3.7111333428006787 2.6903300256817166 Q 3.7935246053901324 2.753348221995182 3.8923306354270646 2.8236153809866025 Q 3.998115530039096 2.898845647862175 4.037364510628051 2.926481519302948 Q 4.076613491217007 2.95411739074372 4.112764863825056 2.9787207452496456 Q 4.204641060576481 3.0424004379625136 4.249501748611449 3.0726444565084603 Q 4.262251459318687 3.081158498797201 4.264001984866089 3.091529159090762 Q 4.265752510413489 3.1018998193843226 4.260658794427123 3.1090623382903457 Q 4.255565078440756 3.1162248571963684 4.2450392944001845 3.1189712162718934 Q 4.234513510359613 3.1217175753474184 4.223126941842345 3.1136198730101174 L 4.174748290935916 3.0797678588917563 L 3.826580680916005 2.826633297043519 Q 3.7285092682027674 2.7568885704609567 3.683705641335626 2.7288974351756865 Q 3.6694938738390377 2.7481035780491663 3.6522616342249523 2.776223191386167 Q 3.632000892615136 2.8093790335316116 3.622862340399235 2.824173457523807 Q 3.613723788183334 2.8389678815160018 3.604034698984759 2.8409265770391228 Q 3.594345609786184 2.842885272562244 3.5871830908801607 2.837791556575877 Q 3.580020571974138 2.8326978405895105 3.577221166669904 2.8218577941158007 Q 3.5744217613656697 2.811017747642091 3.5842458996156727 2.7983701144531543 Q 3.594070037865676 2.7857224812642176 3.601228967842679 2.776433672260616 Q 3.608387897819682 2.7671448632570144 3.6138489224678967 2.7602435605554207 Q 3.6193099471161108 2.7533422578538267 3.623595498844394 2.748093844130546 Q 3.6278810505726775 2.742845430407265 3.6321135560722517 2.7372827542508458 Q 3.6363460615718264 2.7317200780944266 3.6415703856604074 2.72437390485748 L 3.653847547268574 2.7071103977506557 M 3.96037002247428 2.474346834109521 Q 3.981872490364277 2.4862253709822344 4.134131142807101 2.568523147732705 Q 4.286389795249926 2.6508209244831753 4.457080529512331 2.736933303422981 Q 4.469983067676187 2.743394944578117 4.472544501126432 2.754770220430703 Q 4.475105934576676 2.7661454962832894 4.470498116347158 2.774670394792458 Q 4.465890298117639 2.7831952933016266 4.456406461911844 2.786522900369464 Q 4.4469226257060495 2.7898505074373015 4.426732900774993 2.7779130030208687 Q 4.406543175843936 2.765975498604436 4.370493174616751 2.7454653091098296 Q 4.334443173389566 2.724955119615223 4.293635089273543 2.701873124597164 Q 4.212811934856304 2.6561377688149554 4.142035451884834 2.617882161653604 Q 4.071258968913365 2.5796265544922528 4.031699373063271 2.5585002538139965 Q 3.9921397772131755 2.5373739531357407 3.958404562737399 2.5201643282863815 Q 3.8840113265795426 2.481490863395082 3.838284522842154 2.4608737175623747 Q 3.824953350424389 2.4552050902220452 3.821915091700477 2.4461338245969064 Q 3.818876832976566 2.4370625589717676 3.8238061268965162 2.4279429001014945 Q 3.828735420816466 2.418823241231221 3.8391676204203025 2.4142150185509497 Q 3.849599820024139 2.4096067958706784 3.8639490999076256 2.418131289929094 Q 3.878298379791112 2.42665578398751 3.8922511527671952 2.434965960918971 Q 3.9062039257432786 2.4432761378504324 3.922535740163781 2.4528722175436197 Q 3.9388675545842835 2.4624682972368075 3.96037002247428 2.474346834109521 M 4.674855749687423 2.345215363584995 Q 4.642880848926372 2.4338233857230924 4.536235583343632 2.442537795370056 Q 4.4295903177608915 2.4512522050170196 4.250678426171049 2.3866904436717373 Q 4.10949913730987 2.3357447883921667 4.030971629093549 2.2532613717720578 Q 3.9929032654927266 2.212690614243593 3.9773729621953047 2.168752825866097 Q 3.9618426588978823 2.1248150374886006 3.9778301092784085 2.080511026419552 Q 3.9938175596589343 2.036207015350503 4.028856695859357 2.011475945325172 Q 4.06389583205978 1.9867448752998405 4.115366388131731 1.9808807874976653 Q 4.216305673050395 1.9693885757269607 4.380260918728997 2.0275947750068166 Q 4.5526954009758365 2.0888607734025624 4.630457959413185 2.1734639991647313 Q 4.706830650448476 2.2566073414468977 4.674855749687423 2.345215363584995 M 4.043939054408927 2.0533354114995337 Q 4.024241652548433 2.0687484137389576 4.015521225068146 2.0929142379584387 Q 4.006800797587859 2.1170800621779198 4.012270133559465 2.1410955099808073 Q 4.01773946953107 2.165110957783695 4.034048361266197 2.1889650040504574 Q 4.050357253001325 2.21281905031722 4.075886348164223 2.235687754310473 Q 4.101415443327122 2.2585564583037265 4.1326965523126 2.2794278812913205 Q 4.197107607552998 2.3213587252612746 4.267273290155176 2.346678562945266 Q 4.337438972757353 2.3719984006292565 4.386835071986923 2.383833752823092 Q 4.436231171216492 2.3956691050169274 4.474149839259545 2.398810626189117 Q 4.512068507302598 2.4019521473613064 4.539840620602782 2.3973592641855426 Q 4.5676127339029655 2.392766381009779 4.586958122693368 2.3829763855565793 Q 4.621916217696316 2.3644452741016786 4.635685313717821 2.326288709544603 Q 4.6763806419591605 2.2135148631870245 4.477783735346004 2.1145369505840295 Q 4.432288879989194 2.0918905717656893 4.383109307893408 2.0741437368935265 Q 4.333929735797622 2.0563969020213637 4.295974127035221 2.046054508666125 Q 4.25801851827282 2.035712115310887 4.221518246770843 2.029967832209814 Q 4.185017975268866 2.0242235491087417 4.151592393363065 2.023901316999219 Q 4.118166811457263 2.023579084889696 4.090901633863342 2.030750747074903 Q 4.063636456269422 2.0379224092601103 4.043939054408927 2.0533354114995337 M 4.152532109475012 1.4233848487667256 Q 4.374353813977066 1.4577992049018846 4.466492654539594 1.4709593083125978 Q 4.558631495102121 1.484119411723311 4.601720977746137 1.4900461940906358 Q 4.644810460390152 1.4959729764579606 4.683692974832527 1.5010712338728252 Q 4.7659199330423405 1.51190504184593 4.796197279272352 1.515091288232452 Q 4.826474625502364 1.5182775346189743 4.831892757738919 1.5217831733004001 Q 4.837310889975473 1.525288811981826 4.840689333224653 1.530324305135926 Q 4.85458556983954 1.5509761999991707 4.8382682334048255 1.5695891954643273 Q 4.831766790556674 1.5768559164773874 4.820548325661825 1.5788959563933347 Q 4.699822369413521 1.6017187713547796 4.5569465723525395 1.6377685773984243 Q 4.414070775291557 1.673818383442069 4.355173922325742 1.6877156728426728 Q 4.248216217670792 1.7129602894810891 4.159679618680841 1.730364182616692 L 4.782947240613358 1.8134660679950556 Q 4.796779221521049 1.815441676739521 4.802452446479241 1.8235367033746839 Q 4.808125671437432 1.8316317300098468 4.806819220493511 1.8407786851262236 Q 4.8055127695495905 1.8499256402426003 4.797035323162331 1.8566824828748882 Q 4.78855787677507 1.8634393255071762 4.773897239316704 1.8608900652015294 Q 4.651831476020879 1.8389025744336291 4.494771563778703 1.816469855786796 L 4.230179154802535 1.7786783723846025 Q 4.161019250264077 1.7688003286622755 4.110918183194709 1.7625550313214773 Q 4.09440904469198 1.7601970466909864 4.087142192080705 1.748914984080014 Q 4.079875339469431 1.7376329214690418 4.0814685723278705 1.7264780981563872 Q 4.085037413930776 1.701491293936041 4.10983276701168 1.6968374748108221 Q 4.134628120092584 1.6921836556856031 4.176665454925029 1.6831630625461138 Q 4.218702789757472 1.6741424694066245 4.270173817754741 1.6628269190938374 Q 4.32164484575201 1.6515113687810505 4.379298757757884 1.6383471419596152 Q 4.436952669763759 1.6251829151381796 4.494160388837127 1.6119549590024067 Q 4.551368107910496 1.5987270028666338 4.605038192047055 1.5863596556708475 Q 4.658708276183614 1.573992308475061 4.702498474222843 1.5638561891382345 Q 4.746288672262071 1.5537200698014084 4.777330638665919 1.5467713812350348 Q 4.778732946777775 1.5465163762455414 4.779689061957125 1.5461976419417105 Q 4.691725412671213 1.5372762397915913 4.5883361986905955 1.5247857328421381 Q 4.46263733808467 1.509108760175805 4.399947274933623 1.5017483314323137 Q 4.337257211782575 1.494387902688822 4.273005473367756 1.4868044213451488 Q 4.208753734952937 1.4792209400014757 4.145521884897877 1.472466071342406 Q 4.131243711057679 1.470426733283603 4.125442983604741 1.461630552592512 Q 4.119642256151804 1.452834371901421 4.1209805717528925 1.4434643203187911 Q 4.122318887353982 1.4340942687361613 4.1302864114943985 1.427719889722042 Q 4.138253935634815 1.4213455107079227 4.152532109475012 1.4233848487667256 M 4.65592206144405 1.2274020003927644 Q 4.6551755411166855 1.2116444334297707 4.6671394161182445 1.2070166005296057 Q 4.6791032911198025 1.2023887676294405 4.707016695454249 1.2010663601923954 Q 4.734930099788695 1.1997439527553502 4.758879178944023 1.1909385031539628 Q 4.78282825809935 1.1821330535525754 4.798846382893918 1.16783738895251 Q 4.830861303330841 1.1387958435534364 4.828557754892117 1.0901724940676272 Q 4.8262542064533935 1.041549144581818 4.789096952895984 1.0144309754502137 Q 4.751939699338576 0.9873128063186096 4.684857485696116 0.9904908499979601 Q 4.595264462106523 0.9947353512878307 4.529085577993967 1.0741279075017565 Q 4.510299864546588 1.096676767748263 4.492017690178678 1.1203298393399157 Q 4.473735515810769 1.1439829109315682 4.454049369965505 1.1665744294824956 Q 4.434363224120242 1.189165948033423 4.409961624763447 1.2074685961170273 Q 4.356355351926961 1.2474600263511495 4.28567140869296 1.2508087032481834 Q 4.213186600663189 1.2542426967540588 4.166588927507876 1.2135837439233343 Q 4.120462799703715 1.1733536781393423 4.117434060089837 1.109422977889482 Q 4.114831903520168 1.0544966016184751 4.150085957961055 1.0176307476196929 Q 4.190550644419362 0.9764569980039017 4.26543583750932 0.9760678721295731 Q 4.269058896253071 0.9763474551108327 4.27310017746745 0.9759303846414675 Q 4.277141458681829 0.9755133141721026 4.288450186535922 0.9761056258641991 Q 4.299758914390015 0.9766979375562956 4.30893271958529 0.9846110187686323 Q 4.318106524780565 0.992524099980969 4.318565101553088 1.0022037482582364 Q 4.319023678325612 1.011883396535504 4.310564399729386 1.0190525579877472 Q 4.30210512113316 1.0262217194399903 4.287591557005942 1.0246531713160099 Q 4.254448495504391 1.0203573888411148 4.2375653880440405 1.021157232049005 Q 4.2206822805836905 1.0219570752568952 4.20566287337448 1.0287601851177752 Q 4.19064346616527 1.035563294978655 4.17947107379802 1.0473732579096926 Q 4.155860957075534 1.0728580360241695 4.157695264165629 1.11157662913324 Q 4.159721533625618 1.1543471680327944 4.190265335689516 1.1799737450756789 Q 4.224088626059276 1.2081523152467464 4.2713613269482575 1.2059127542646537 Q 4.318634027837239 1.203673193282561 4.347182402168202 1.1919424903893083 Q 4.375730776499165 1.1802117874960556 4.398342175636294 1.162219564120764 Q 4.420953574773423 1.1442273407454724 4.439289072021859 1.1216998096511763 Q 4.457624569270295 1.0991722785568803 4.475477856591472 1.0759907523163807 Q 4.493331143912649 1.052809226075881 4.512341965459499 1.0302497012532694 Q 4.531352787006349 1.0076901764306578 4.554853953965258 0.9894301866514741 Q 4.6080100106028015 0.9494600855695623 4.679594386234688 0.9460687503681077 Q 4.763334599238026 0.9421015280569722 4.8153561959328615 0.9829547472601143 Q 4.866906247276545 1.023379079416524 4.870297582478 1.09496345504841 Q 4.873454297005139 1.1615954524919265 4.8241132614812425 1.205897082345582 Q 4.777817093588891 1.247798327139051 4.717488122930572 1.2506564335352455 Q 4.6571591522722535 1.2535145399314398 4.65592206144405 1.2274020003927644" fill="#3a2f86" fill-rule="nonzero"></path></g><g transform="matrix(1,0,0,1,0,0)" clip-path="url(#SvgjsClipPath150220)"><g clip-path="url(#b958ecf60-b164-42e5-98f9-739336e6b5befb78829a-207f-4802-a00d-3ba2b4fba0d9)"><path d=" M 3.1849520831776847 1.7597854902712202 L 3.1849520831776847 0.05850595739906926 C 3.1849520831776847 0.026325586843990546 3.1710773346549135 0 3.154120239342899 0 L 2.537546182214912 0 C 2.520589086902898 0 2.5067185263513077 0.026325586843990546 2.5067185263513077 0.05850595739906926 L 2.5067185263513077 1.7597854902712202 C 2.5067185263513077 1.791965860826299 2.5205890869028984 1.8182956356414708 2.537546182214912 1.8182956356414708 L 3.154120239342899 1.8182956356414708 C 3.1710773346549135 1.8182956356414708 3.1849520831776847 1.791965860826299 3.1849520831776847 1.7597854902712202" fill="#b0aeaf" transform="matrix(1,0,0,1,0,0)" fill-rule="nonzero"></path></g><g clip-path="url(#b958ecf60-b164-42e5-98f9-739336e6b5befb78829a-207f-4802-a00d-3ba2b4fba0d9)"><path d=" M 3.09274552168482 0.1042721064654281 L 2.59892089987299 0.1042721064654281 C 2.5895775361680995 0.1042721064654281 2.5819344887627094 0.1058886633413079 2.5819344887627094 0.10786538573875677 L 2.5819344887627094 0.17972678323414915 C 2.5819344887627094 0.181703505631598 2.5895775361680995 0.1833200625074778 2.598916711901809 0.1833200625074778 L 3.09274552168482 0.1833200625074778 C 3.1020888853897106 0.1833200625074778 3.10972774482392 0.181703505631598 3.10972774482392 0.17972678323414915 L 3.1097319327951007 0.10786538573875677 C 3.1097319327951007 0.1058886633413079 3.1020888853897106 0.1042721064654281 3.09274552168482 0.1042721064654281" fill="#231f20" transform="matrix(1,0,0,1,0,0)" fill-rule="nonzero"></path></g><g clip-path="url(#b958ecf60-b164-42e5-98f9-739336e6b5befb78829a-207f-4802-a00d-3ba2b4fba0d9)"><path d=" M 3.09274552168482 0.22317698423739474 L 2.59892089987299 0.22317698423739474 C 2.5895775361680995 0.22317698423739474 2.5819344887627094 0.22578609028318 2.5819344887627094 0.22897732432312926 L 2.5819344887627094 0.34495062226837114 C 2.5819344887627094 0.3481418563083204 2.5895775361680995 0.35075096235410563 2.598916711901809 0.35075096235410563 L 3.09274552168482 0.35075096235410563 C 3.10208469741853 0.35075096235410563 3.10972774482392 0.3481418563083204 3.10972774482392 0.34495062226837114 L 3.1097319327951007 0.22897732432312926 C 3.1097319327951007 0.22578609028318 3.1020888853897106 0.22317698423739474 3.09274552168482 0.22317698423739474" fill="#231f20" transform="matrix(1,0,0,1,0,0)" fill-rule="nonzero"></path></g><g clip-path="url(#b958ecf60-b164-42e5-98f9-739336e6b5befb78829a-207f-4802-a00d-3ba2b4fba0d9)"><path d=" M 3.09274552168482 0.423081412621774 L 2.59892089987299 0.42307303667941193 C 2.5895775361680995 0.42307303667941193 2.5819344887627094 0.44203198221596074 2.5819344887627094 0.46520402676063155 L 2.5819344887627094 1.7018700368086768 C 2.5819344887627094 1.7250420813533478 2.5895775361680995 1.7440052148610774 2.598916711901809 1.7440052148610774 L 3.09274552168482 1.7440135908034395 C 3.10208469741853 1.7440135908034395 3.10972774482392 1.7250546452668907 3.10972774482392 1.7018826007222199 L 3.1097319327951007 0.46521659067417453 C 3.1097319327951007 0.44204454612950383 3.1020888853897106 0.423081412621774 3.09274552168482 0.423081412621774" fill="#231f20" transform="matrix(1,0,0,1,0,0)" fill-rule="nonzero"></path></g><g clip-path="url(#b958ecf60-b164-42e5-98f9-739336e6b5befb78829a-207f-4802-a00d-3ba2b4fba0d9)"><path d=" M 0.6410024930269691 1.7922925225784196 L 1.7737984418429658 1.7922925225784196 L 1.7737984418429658 1.7353067987180664 L 0.6410024930269691 1.7353067987180664 Z M 0 2.473281764441918 L 3.254736246967283 2.473281764441918 L 3.254736246967283 2.4524759236145326 L 0 2.4524759236145326 Z M 1.0443459974725218 1.7353067987180664 L 1.370454937397413 1.7353067987180664 L 1.370454937397413 1.3041635415727983 L 1.0443459974725218 1.3041635415727983 Z" fill="#b0aeaf" transform="matrix(1,0,0,1,0,0)" fill-rule="nonzero"></path></g><g clip-path="url(#b958ecf60-b164-42e5-98f9-739336e6b5befb78829a-207f-4802-a00d-3ba2b4fba0d9)"><path d=" M 2.3370973175769976 0.015101824078814923 L 0.07770780526411793 0.015101824078814923 C 0.03496955936164808 0.015101824078814923 0 0.05006719546928236 0 0.09280544137175213 L 0 1.2299401283313018 C 0 1.2726783742337715 0.03496955936164837 1.3076437456242391 0.07770780526411793 1.3076437456242391 L 2.3370973175769976 1.3076437456242391 C 2.3798355634794675 1.3076437456242391 2.414800934869935 1.2726783742337715 2.414800934869935 1.2299401283313018 L 2.414800934869935 0.09280544137175202 C 2.414800934869935 0.05006719546928236 2.3798355634794675 0.015101824078814923 2.3370973175769976 0.015101824078814923" fill="#cccbcc" transform="matrix(1,0,0,1,0,0)" fill-rule="nonzero"></path></g><g clip-path="url(#b958ecf60-b164-42e5-98f9-739336e6b5befb78829a-207f-4802-a00d-3ba2b4fba0d9)"><path d=" M 0 1.1723094569090688 L 0 1.2299401283313018 C 0 1.2726783742337715 0.03496955936164847 1.3076437456242391 0.07770780526411826 1.3076437456242391 L 2.3370973175769976 1.3076437456242391 C 2.379831375508286 1.3076437456242391 2.4148009348699344 1.2726783742337715 2.4148009348699344 1.2299401283313018 L 2.4148009348699344 1.172317832851431 Z" fill="#b0aeaf" transform="matrix(1,0,0,1,0,0)" fill-rule="nonzero"></path></g><g clip-path="url(#b958ecf60-b164-42e5-98f9-739336e6b5befb78829a-207f-4802-a00d-3ba2b4fba0d9)"><path d=" M 0.06818017082726194 0.09388593793645932 L 0.06818017082726194 1.1723094569090688 L 2.3466165760714923 1.1682596887770074 L 2.3466165760714923 0.09388593793645932 Z" fill="#dc1546" transform="matrix(1,0,0,1,0,0)" fill-rule="nonzero"></path></g><g clip-path="url(#b958ecf60-b164-42e5-98f9-739336e6b5befb78829a-207f-4802-a00d-3ba2b4fba0d9)"><path d=" M 1.5394228226674813 0.09388593793645932 L 0.9866106267707629 1.1723094569090688 L 2.3466207640426733 1.1682596887770074 L 2.3466207640426733 0.09388593793645932 Z" fill="#3a2f86" transform="matrix(1,0,0,1,0,0)" fill-rule="nonzero"></path></g></g><g><path d=" M -0.5335279478987485 1.236640882220959 A 2.16089607138239 2.16089607138239 0 0 1 3.7882641948660316 1.236640882220959 A 2.16089607138239 2.16089607138239 0 0 1 -0.5335279478987482 1.236640882220959 Z M -0.4835279478987484 1.2366408822209591 A 2.11089607138239 2.11089607138239 0 0 0 3.738264194866032 1.2366408822209591 A 2.11089607138239 2.11089607138239 0 0 0 -0.4835279478987484 1.2366408822209591 Z" fill="#231f20" fill-rule="nonzero"></path></g><g><path d=" M -1.970372026087747 1.236640882220959 A 3.5977401495713885 3.5977401495713885 0 0 1 5.22510827305503 1.236640882220959 A 3.5977401495713885 3.5977401495713885 0 0 1 -1.9703720260877473 1.236640882220959 Z M -1.9203720260877473 1.236640882220959 A 3.5477401495713887 3.5477401495713887 0 0 0 5.17510827305503 1.236640882220959 A 3.5477401495713887 3.5477401495713887 0 0 0 -1.9203720260877475 1.236640882220959 Z" fill="#231f20" fill-rule="nonzero"></path></g><g transform="matrix(0.6206768654921041,-0.7840664695310574,0.7840664695310574,0.6206768654921041,-0.1962982340784416,-0.6883792807506288)"><g clip-path="url(#SvgjsClipPath150221)"><path d=" M -1.0022405401507548 -0.006160727864268245 C -1.0022405401507548 0.02698927337910051 -0.9813764547883128 0.04715675503941208 -0.9470661507484006 0.04715675503941208 L -0.6721223932208393 0.04715675503941208 C -0.6378118254157996 0.04715675503941208 -0.6169480038184852 0.02698927337910051 -0.6169480038184852 -0.006160727864268245 L -0.6169480038184852 -0.28481513320764523 C -0.6169480038184852 -0.31796618951152456 -0.6378118254157996 -0.33813498999747443 -0.6721223932208393 -0.33813498999747443 L -0.9470661507484006 -0.33813498999747443 C -0.9813764547883128 -0.33813498999747443 -1.0022405401507548 -0.31796618951152456 -1.0022405401507548 -0.28481513320764523 L -1.0022405401507548 -0.006160727864268245 Z" fill="#231f20" transform="matrix(1,0,0,1,0,0)" fill-rule="nonzero"></path></g></g><g transform="matrix(-0.6206768654921041,-0.7840664695310574,-0.7840664695310574,0.6206768654921041,6.476166679215552,3.1331015160294755)"><g clip-path="url(#SvgjsClipPath150222)"><path d=" M 3.8716839870206408 -0.006160727864268245 C 3.8716839870206408 0.02698927337910051 3.8925480723830828 0.04715675503941208 3.9268583764229947 0.04715675503941208 L 4.201802133950556 0.04715675503941208 C 4.236112701755596 0.04715675503941208 4.25697652335291 0.02698927337910051 4.25697652335291 -0.006160727864268245 L 4.25697652335291 -0.28481513320764523 C 4.25697652335291 -0.31796618951152456 4.236112701755596 -0.33813498999747443 4.201802133950556 -0.33813498999747443 L 3.9268583764229947 -0.33813498999747443 C 3.8925480723830828 -0.33813498999747443 3.8716839870206408 -0.31796618951152456 3.8716839870206408 -0.28481513320764523 L 3.8716839870206408 -0.006160727864268245 Z" fill="#231f20" transform="matrix(1,0,0,1,0,0)" fill-rule="nonzero"></path></g></g></g><defs><clipPath id="SvgjsClipPath150220"><path d=" M 0 0 h 3.254736246967283 v 2.473281764441918 h -3.254736246967283 Z"></path></clipPath><clipPath id="b958ecf60-b164-42e5-98f9-739336e6b5befb78829a-207f-4802-a00d-3ba2b4fba0d9"><path d=" M -0.004187971181035746 -0.004187971181035637 L 3.258924218148319 -0.004187971181035637 L 3.258924218148319 2.477469735622954 L -0.004187971181035746 2.477469735622954 Z"></path></clipPath><clipPath id="SvgjsClipPath150221"><path d=" M -1.178865318815584 -0.5237734143695733 h 0.7385423574270557 v 0.7649188701923076 h -0.7385423574270557 Z"></path></clipPath><clipPath id="SvgjsClipPath150222"><path d=" M 3.6950592083558114 -0.5237734143695733 h 0.7385423574270557 v 0.7649188701923076 h -0.7385423574270557 Z"></path></clipPath></defs></svg>